<svg width="129" height="20" viewBox="0 0 129 20" fill="none" xmlns="http://www.w3.org/2000/svg">
<path d="M12.681 7.0866L10.1002 0.0561523L7.51942 7.0866H-0.000488281L5.82855 11.7587L3.78171 19.0562L10.1447 14.7845L16.5077 19.0562L14.4164 11.7587L20.2454 7.0866H12.681Z" fill="#F9AD35"/>
<path d="M39.681 7.0866L37.1002 0.0561523L34.5194 7.0866H26.9995L32.8286 11.7587L30.7817 19.0562L37.1447 14.7845L43.5077 19.0562L41.4164 11.7587L47.2454 7.0866H39.681Z" fill="#F9AD35"/>
<path d="M66.681 7.0866L64.1002 0.0561523L61.5194 7.0866H53.9995L59.8286 11.7587L57.7817 19.0562L64.1447 14.7845L70.5077 19.0562L68.4164 11.7587L74.2454 7.0866H66.681Z" fill="#F9AD35"/>
<path d="M93.681 7.0866L91.1002 0.0561523L88.5194 7.0866H80.9995L86.8286 11.7587L84.7817 19.0562L91.1447 14.7845L97.5077 19.0562L95.4164 11.7587L101.245 7.0866H93.681Z" fill="#F9AD35"/>
<path d="M120.681 7.0866L118.1 0.0561523L115.519 7.0866H108L113.829 11.7587L111.782 19.0562L118.145 14.7845L124.508 19.0562L122.416 11.7587L128.245 7.0866H120.681Z" fill="#F9AD35"/>
</svg>
