<svg width="248" height="93" viewBox="0 0 248 93" fill="none" xmlns="http://www.w3.org/2000/svg">
    <path d="M38.8401 2.74438L23.5901 37.7444H17.1901L1.89014 2.74438H8.94014L20.5901 29.7444L32.3401 2.74438H38.8401ZM76.2835 32.2944V37.7444H50.0335V2.74438H75.5835V8.19438H56.5335V17.2944H73.4335V22.6444H56.5335V32.2944H76.2835ZM113.93 37.7444L106.78 27.4944C106.48 27.5277 106.03 27.5444 105.43 27.5444H97.5296V37.7444H91.0296V2.74438H105.43C108.463 2.74438 111.096 3.24438 113.33 4.24438C115.596 5.24438 117.33 6.67772 118.53 8.54438C119.73 10.4111 120.33 12.6277 120.33 15.1944C120.33 17.8277 119.68 20.0944 118.38 21.9944C117.113 23.8944 115.28 25.3111 112.88 26.2444L120.93 37.7444H113.93ZM113.78 15.1944C113.78 12.9611 113.046 11.2444 111.58 10.0444C110.113 8.84438 107.963 8.24438 105.13 8.24438H97.5296V22.1944H105.13C107.963 22.1944 110.113 21.5944 111.58 20.3944C113.046 19.1611 113.78 17.4277 113.78 15.1944ZM158.002 37.7444L150.852 27.4944C150.552 27.5277 150.102 27.5444 149.502 27.5444H141.602V37.7444H135.102V2.74438H149.502C152.535 2.74438 155.169 3.24438 157.402 4.24438C159.669 5.24438 161.402 6.67772 162.602 8.54438C163.802 10.4111 164.402 12.6277 164.402 15.1944C164.402 17.8277 163.752 20.0944 162.452 21.9944C161.185 23.8944 159.352 25.3111 156.952 26.2444L165.002 37.7444H158.002ZM157.852 15.1944C157.852 12.9611 157.119 11.2444 155.652 10.0444C154.185 8.84438 152.035 8.24438 149.202 8.24438H141.602V22.1944H149.202C152.035 22.1944 154.185 21.5944 155.652 20.3944C157.119 19.1611 157.852 17.4277 157.852 15.1944ZM179.174 2.74438H194.474C198.207 2.74438 201.524 3.47772 204.424 4.94438C207.324 6.37772 209.574 8.42772 211.174 11.0944C212.774 13.7277 213.574 16.7777 213.574 20.2444C213.574 23.7111 212.774 26.7777 211.174 29.4444C209.574 32.0777 207.324 34.1277 204.424 35.5944C201.524 37.0277 198.207 37.7444 194.474 37.7444H179.174V2.74438ZM194.174 32.2444C196.741 32.2444 198.991 31.7611 200.924 30.7944C202.891 29.7944 204.391 28.3944 205.424 26.5944C206.491 24.7611 207.024 22.6444 207.024 20.2444C207.024 17.8444 206.491 15.7444 205.424 13.9444C204.391 12.1111 202.891 10.7111 200.924 9.74438C198.991 8.74438 196.741 8.24438 194.174 8.24438H185.674V32.2444H194.174ZM227.983 2.74438H234.483V37.7444H227.983V2.74438Z"
          fill="white"/>
    <path d="M2.73614 55.9034H0.184137V54.6934H6.71814V55.9034H4.16614V62.3934H2.73614V55.9034ZM14.6993 62.3934L13.1263 60.1384C13.0603 60.1458 12.9613 60.1494 12.8293 60.1494H11.0913V62.3934H9.66132V54.6934H12.8293C13.4967 54.6934 14.076 54.8034 14.5673 55.0234C15.066 55.2434 15.4473 55.5588 15.7113 55.9694C15.9753 56.3801 16.1073 56.8678 16.1073 57.4324C16.1073 58.0118 15.9643 58.5104 15.6783 58.9284C15.3997 59.3464 14.9963 59.6581 14.4683 59.8634L16.2393 62.3934H14.6993ZM14.6663 57.4324C14.6663 56.9411 14.505 56.5634 14.1823 56.2994C13.8597 56.0354 13.3867 55.9034 12.7633 55.9034H11.0913V58.9724H12.7633C13.3867 58.9724 13.8597 58.8404 14.1823 58.5764C14.505 58.3051 14.6663 57.9238 14.6663 57.4324ZM24.5712 60.6114H20.7212L19.9622 62.3934H18.4882L21.9532 54.6934H23.3612L26.8372 62.3934H25.3412L24.5712 60.6114ZM24.0982 59.4894L22.6462 56.1234L21.2052 59.4894H24.0982ZM36.5285 54.6934V62.3934H35.3515L31.1055 57.1794V62.3934H29.6865V54.6934H30.8635L35.1095 59.9074V54.6934H36.5285ZM42.8488 62.5034C42.2548 62.5034 41.6791 62.4191 41.1218 62.2504C40.5718 62.0818 40.1354 61.8581 39.8128 61.5794L40.3078 60.4684C40.6231 60.7178 41.0081 60.9231 41.4628 61.0844C41.9248 61.2384 42.3868 61.3154 42.8488 61.3154C43.4208 61.3154 43.8461 61.2238 44.1248 61.0404C44.4108 60.8571 44.5538 60.6151 44.5538 60.3144C44.5538 60.0944 44.4731 59.9148 44.3118 59.7754C44.1578 59.6288 43.9598 59.5151 43.7178 59.4344C43.4758 59.3538 43.1458 59.2621 42.7278 59.1594C42.1411 59.0201 41.6644 58.8808 41.2978 58.7414C40.9384 58.6021 40.6268 58.3858 40.3628 58.0924C40.1061 57.7918 39.9778 57.3884 39.9778 56.8824C39.9778 56.4571 40.0914 56.0721 40.3188 55.7274C40.5534 55.3754 40.9018 55.0968 41.3638 54.8914C41.8331 54.6861 42.4051 54.5834 43.0798 54.5834C43.5491 54.5834 44.0111 54.6421 44.4658 54.7594C44.9204 54.8768 45.3128 55.0454 45.6428 55.2654L45.1918 56.3764C44.8544 56.1784 44.5024 56.0281 44.1358 55.9254C43.7691 55.8228 43.4134 55.7714 43.0688 55.7714C42.5041 55.7714 42.0824 55.8668 41.8038 56.0574C41.5324 56.2481 41.3968 56.5011 41.3968 56.8164C41.3968 57.0364 41.4738 57.2161 41.6278 57.3554C41.7891 57.4948 41.9908 57.6048 42.2328 57.6854C42.4748 57.7661 42.8048 57.8578 43.2228 57.9604C43.7948 58.0924 44.2641 58.2318 44.6308 58.3784C44.9974 58.5178 45.3091 58.7341 45.5658 59.0274C45.8298 59.3208 45.9618 59.7168 45.9618 60.2154C45.9618 60.6408 45.8444 61.0258 45.6098 61.3704C45.3824 61.7151 45.0341 61.9901 44.5648 62.1954C44.0954 62.4008 43.5234 62.5034 42.8488 62.5034ZM52.4177 54.6934C53.0851 54.6934 53.6644 54.8034 54.1557 55.0234C54.6544 55.2434 55.0357 55.5588 55.2997 55.9694C55.5637 56.3801 55.6957 56.8678 55.6957 57.4324C55.6957 57.9898 55.5637 58.4774 55.2997 58.8954C55.0357 59.3061 54.6544 59.6214 54.1557 59.8414C53.6644 60.0614 53.0851 60.1714 52.4177 60.1714H50.6797V62.3934H49.2497V54.6934H52.4177ZM52.3517 58.9614C52.9751 58.9614 53.4481 58.8294 53.7707 58.5654C54.0934 58.3014 54.2547 57.9238 54.2547 57.4324C54.2547 56.9411 54.0934 56.5634 53.7707 56.2994C53.4481 56.0354 52.9751 55.9034 52.3517 55.9034H50.6797V58.9614H52.3517ZM62.6982 62.5034C61.9135 62.5034 61.2058 62.3348 60.5752 61.9974C59.9445 61.6528 59.4495 61.1798 59.0902 60.5784C58.7308 59.9698 58.5512 59.2914 58.5512 58.5434C58.5512 57.7954 58.7308 57.1208 59.0902 56.5194C59.4495 55.9108 59.9445 55.4378 60.5752 55.1004C61.2058 54.7558 61.9135 54.5834 62.6982 54.5834C63.4828 54.5834 64.1905 54.7558 64.8212 55.1004C65.4518 55.4378 65.9468 55.9071 66.3062 56.5084C66.6655 57.1098 66.8452 57.7881 66.8452 58.5434C66.8452 59.2988 66.6655 59.9771 66.3062 60.5784C65.9468 61.1798 65.4518 61.6528 64.8212 61.9974C64.1905 62.3348 63.4828 62.5034 62.6982 62.5034ZM62.6982 61.2494C63.2115 61.2494 63.6735 61.1358 64.0842 60.9084C64.4948 60.6738 64.8175 60.3511 65.0522 59.9404C65.2868 59.5224 65.4042 59.0568 65.4042 58.5434C65.4042 58.0301 65.2868 57.5681 65.0522 57.1574C64.8175 56.7394 64.4948 56.4168 64.0842 56.1894C63.6735 55.9548 63.2115 55.8374 62.6982 55.8374C62.1848 55.8374 61.7228 55.9548 61.3122 56.1894C60.9015 56.4168 60.5788 56.7394 60.3442 57.1574C60.1095 57.5681 59.9922 58.0301 59.9922 58.5434C59.9922 59.0568 60.1095 59.5224 60.3442 59.9404C60.5788 60.3511 60.9015 60.6738 61.3122 60.9084C61.7228 61.1358 62.1848 61.2494 62.6982 61.2494ZM75.2689 62.3934L73.6959 60.1384C73.6299 60.1458 73.5309 60.1494 73.3989 60.1494H71.6609V62.3934H70.2309V54.6934H73.3989C74.0663 54.6934 74.6456 54.8034 75.1369 55.0234C75.6356 55.2434 76.0169 55.5588 76.2809 55.9694C76.5449 56.3801 76.6769 56.8678 76.6769 57.4324C76.6769 58.0118 76.5339 58.5104 76.2479 58.9284C75.9693 59.3464 75.5659 59.6581 75.0379 59.8634L76.8089 62.3934H75.2689ZM75.2359 57.4324C75.2359 56.9411 75.0746 56.5634 74.7519 56.2994C74.4293 56.0354 73.9563 55.9034 73.3329 55.9034H71.6609V58.9724H73.3329C73.9563 58.9724 74.4293 58.8404 74.7519 58.5764C75.0746 58.3051 75.2359 57.9238 75.2359 57.4324ZM81.6014 55.9034H79.0494V54.6934H85.5834V55.9034H83.0314V62.3934H81.6014V55.9034ZM95.8236 62.5034C95.2296 62.5034 94.654 62.4191 94.0966 62.2504C93.5466 62.0818 93.1103 61.8581 92.7876 61.5794L93.2826 60.4684C93.598 60.7178 93.983 60.9231 94.4376 61.0844C94.8996 61.2384 95.3616 61.3154 95.8236 61.3154C96.3956 61.3154 96.821 61.2238 97.0996 61.0404C97.3856 60.8571 97.5286 60.6151 97.5286 60.3144C97.5286 60.0944 97.448 59.9148 97.2866 59.7754C97.1326 59.6288 96.9346 59.5151 96.6926 59.4344C96.4506 59.3538 96.1206 59.2621 95.7026 59.1594C95.116 59.0201 94.6393 58.8808 94.2726 58.7414C93.9133 58.6021 93.6016 58.3858 93.3376 58.0924C93.081 57.7918 92.9526 57.3884 92.9526 56.8824C92.9526 56.4571 93.0663 56.0721 93.2936 55.7274C93.5283 55.3754 93.8766 55.0968 94.3386 54.8914C94.808 54.6861 95.38 54.5834 96.0546 54.5834C96.524 54.5834 96.986 54.6421 97.4406 54.7594C97.8953 54.8768 98.2876 55.0454 98.6176 55.2654L98.1666 56.3764C97.8293 56.1784 97.4773 56.0281 97.1106 55.9254C96.744 55.8228 96.3883 55.7714 96.0436 55.7714C95.479 55.7714 95.0573 55.8668 94.7786 56.0574C94.5073 56.2481 94.3716 56.5011 94.3716 56.8164C94.3716 57.0364 94.4486 57.2161 94.6026 57.3554C94.764 57.4948 94.9656 57.6048 95.2076 57.6854C95.4496 57.7661 95.7796 57.8578 96.1976 57.9604C96.7696 58.0924 97.239 58.2318 97.6056 58.3784C97.9723 58.5178 98.284 58.7341 98.5406 59.0274C98.8046 59.3208 98.9366 59.7168 98.9366 60.2154C98.9366 60.6408 98.8193 61.0258 98.5846 61.3704C98.3573 61.7151 98.009 61.9901 97.5396 62.1954C97.0703 62.4008 96.4983 62.5034 95.8236 62.5034ZM105.536 62.5034C104.472 62.5034 103.644 62.2064 103.05 61.6124C102.456 61.0111 102.159 60.1531 102.159 59.0384V54.6934H103.589V58.9834C103.589 60.4941 104.241 61.2494 105.547 61.2494C106.845 61.2494 107.494 60.4941 107.494 58.9834V54.6934H108.902V59.0384C108.902 60.1531 108.605 61.0111 108.011 61.6124C107.424 62.2064 106.599 62.5034 105.536 62.5034ZM115.942 54.6934C116.61 54.6934 117.189 54.8034 117.68 55.0234C118.179 55.2434 118.56 55.5588 118.824 55.9694C119.088 56.3801 119.22 56.8678 119.22 57.4324C119.22 57.9898 119.088 58.4774 118.824 58.8954C118.56 59.3061 118.179 59.6214 117.68 59.8414C117.189 60.0614 116.61 60.1714 115.942 60.1714H114.204V62.3934H112.774V54.6934H115.942ZM115.876 58.9614C116.5 58.9614 116.973 58.8294 117.295 58.5654C117.618 58.3014 117.779 57.9238 117.779 57.4324C117.779 56.9411 117.618 56.5634 117.295 56.2994C116.973 56.0354 116.5 55.9034 115.876 55.9034H114.204V58.9614H115.876ZM125.686 54.6934C126.354 54.6934 126.933 54.8034 127.424 55.0234C127.923 55.2434 128.304 55.5588 128.568 55.9694C128.832 56.3801 128.964 56.8678 128.964 57.4324C128.964 57.9898 128.832 58.4774 128.568 58.8954C128.304 59.3061 127.923 59.6214 127.424 59.8414C126.933 60.0614 126.354 60.1714 125.686 60.1714H123.948V62.3934H122.518V54.6934H125.686ZM125.62 58.9614C126.244 58.9614 126.717 58.8294 127.039 58.5654C127.362 58.3014 127.523 57.9238 127.523 57.4324C127.523 56.9411 127.362 56.5634 127.039 56.2994C126.717 56.0354 126.244 55.9034 125.62 55.9034H123.948V58.9614H125.62ZM135.967 62.5034C135.182 62.5034 134.474 62.3348 133.844 61.9974C133.213 61.6528 132.718 61.1798 132.359 60.5784C131.999 59.9698 131.82 59.2914 131.82 58.5434C131.82 57.7954 131.999 57.1208 132.359 56.5194C132.718 55.9108 133.213 55.4378 133.844 55.1004C134.474 54.7558 135.182 54.5834 135.967 54.5834C136.751 54.5834 137.459 54.7558 138.09 55.1004C138.72 55.4378 139.215 55.9071 139.575 56.5084C139.934 57.1098 140.114 57.7881 140.114 58.5434C140.114 59.2988 139.934 59.9771 139.575 60.5784C139.215 61.1798 138.72 61.6528 138.09 61.9974C137.459 62.3348 136.751 62.5034 135.967 62.5034ZM135.967 61.2494C136.48 61.2494 136.942 61.1358 137.353 60.9084C137.763 60.6738 138.086 60.3511 138.321 59.9404C138.555 59.5224 138.673 59.0568 138.673 58.5434C138.673 58.0301 138.555 57.5681 138.321 57.1574C138.086 56.7394 137.763 56.4168 137.353 56.1894C136.942 55.9548 136.48 55.8374 135.967 55.8374C135.453 55.8374 134.991 55.9548 134.581 56.1894C134.17 56.4168 133.847 56.7394 133.613 57.1574C133.378 57.5681 133.261 58.0301 133.261 58.5434C133.261 59.0568 133.378 59.5224 133.613 59.9404C133.847 60.3511 134.17 60.6738 134.581 60.9084C134.991 61.1358 135.453 61.2494 135.967 61.2494ZM148.538 62.3934L146.965 60.1384C146.899 60.1458 146.8 60.1494 146.668 60.1494H144.93V62.3934H143.5V54.6934H146.668C147.335 54.6934 147.914 54.8034 148.406 55.0234C148.904 55.2434 149.286 55.5588 149.55 55.9694C149.814 56.3801 149.946 56.8678 149.946 57.4324C149.946 58.0118 149.803 58.5104 149.517 58.9284C149.238 59.3464 148.835 59.6581 148.307 59.8634L150.078 62.3934H148.538ZM148.505 57.4324C148.505 56.9411 148.343 56.5634 148.021 56.2994C147.698 56.0354 147.225 55.9034 146.602 55.9034H144.93V58.9724H146.602C147.225 58.9724 147.698 58.8404 148.021 58.5764C148.343 58.3051 148.505 57.9238 148.505 57.4324ZM154.87 55.9034H152.318V54.6934H158.852V55.9034H156.3V62.3934H154.87V55.9034ZM169.092 62.5034C168.498 62.5034 167.923 62.4191 167.365 62.2504C166.815 62.0818 166.379 61.8581 166.056 61.5794L166.551 60.4684C166.867 60.7178 167.252 60.9231 167.706 61.0844C168.168 61.2384 168.63 61.3154 169.092 61.3154C169.664 61.3154 170.09 61.2238 170.368 61.0404C170.654 60.8571 170.797 60.6151 170.797 60.3144C170.797 60.0944 170.717 59.9148 170.555 59.7754C170.401 59.6288 170.203 59.5151 169.961 59.4344C169.719 59.3538 169.389 59.2621 168.971 59.1594C168.385 59.0201 167.908 58.8808 167.541 58.7414C167.182 58.6021 166.87 58.3858 166.606 58.0924C166.35 57.7918 166.221 57.3884 166.221 56.8824C166.221 56.4571 166.335 56.0721 166.562 55.7274C166.797 55.3754 167.145 55.0968 167.607 54.8914C168.077 54.6861 168.649 54.5834 169.323 54.5834C169.793 54.5834 170.255 54.6421 170.709 54.7594C171.164 54.8768 171.556 55.0454 171.886 55.2654L171.435 56.3764C171.098 56.1784 170.746 56.0281 170.379 55.9254C170.013 55.8228 169.657 55.7714 169.312 55.7714C168.748 55.7714 168.326 55.8668 168.047 56.0574C167.776 56.2481 167.64 56.5011 167.64 56.8164C167.64 57.0364 167.717 57.2161 167.871 57.3554C168.033 57.4948 168.234 57.6048 168.476 57.6854C168.718 57.7661 169.048 57.8578 169.466 57.9604C170.038 58.0924 170.508 58.2318 170.874 58.3784C171.241 58.5178 171.553 58.7341 171.809 59.0274C172.073 59.3208 172.205 59.7168 172.205 60.2154C172.205 60.6408 172.088 61.0258 171.853 61.3704C171.626 61.7151 171.278 61.9901 170.808 62.1954C170.339 62.4008 169.767 62.5034 169.092 62.5034ZM181.268 61.1944V62.3934H175.493V54.6934H181.114V55.8924H176.923V57.8944H180.641V59.0714H176.923V61.1944H181.268ZM189.77 62.3934L188.197 60.1384C188.131 60.1458 188.032 60.1494 187.9 60.1494H186.162V62.3934H184.732V54.6934H187.9C188.568 54.6934 189.147 54.8034 189.638 55.0234C190.137 55.2434 190.518 55.5588 190.782 55.9694C191.046 56.3801 191.178 56.8678 191.178 57.4324C191.178 58.0118 191.035 58.5104 190.749 58.9284C190.471 59.3464 190.067 59.6581 189.539 59.8634L191.31 62.3934H189.77ZM189.737 57.4324C189.737 56.9411 189.576 56.5634 189.253 56.2994C188.931 56.0354 188.458 55.9034 187.834 55.9034H186.162V58.9724H187.834C188.458 58.9724 188.931 58.8404 189.253 58.5764C189.576 58.3051 189.737 57.9238 189.737 57.4324ZM201.688 54.6934L198.333 62.3934H196.925L193.559 54.6934H195.11L197.673 60.6334L200.258 54.6934H201.688ZM204.371 54.6934H205.801V62.3934H204.371V54.6934ZM213.317 62.5034C212.54 62.5034 211.836 62.3348 211.205 61.9974C210.582 61.6528 210.091 61.1798 209.731 60.5784C209.379 59.9771 209.203 59.2988 209.203 58.5434C209.203 57.7881 209.383 57.1098 209.742 56.5084C210.102 55.9071 210.593 55.4378 211.216 55.1004C211.847 54.7558 212.551 54.5834 213.328 54.5834C213.959 54.5834 214.535 54.6934 215.055 54.9134C215.576 55.1334 216.016 55.4524 216.375 55.8704L215.451 56.7394C214.894 56.1381 214.208 55.8374 213.394 55.8374C212.866 55.8374 212.393 55.9548 211.975 56.1894C211.557 56.4168 211.231 56.7358 210.996 57.1464C210.762 57.5571 210.644 58.0228 210.644 58.5434C210.644 59.0641 210.762 59.5298 210.996 59.9404C211.231 60.3511 211.557 60.6738 211.975 60.9084C212.393 61.1358 212.866 61.2494 213.394 61.2494C214.208 61.2494 214.894 60.9451 215.451 60.3364L216.375 61.2164C216.016 61.6344 215.572 61.9534 215.044 62.1734C214.524 62.3934 213.948 62.5034 213.317 62.5034ZM225.391 61.1944V62.3934H219.616V54.6934H225.237V55.8924H221.046V57.8944H224.764V59.0714H221.046V61.1944H225.391ZM231.242 62.5034C230.648 62.5034 230.072 62.4191 229.515 62.2504C228.965 62.0818 228.528 61.8581 228.206 61.5794L228.701 60.4684C229.016 60.7178 229.401 60.9231 229.856 61.0844C230.318 61.2384 230.78 61.3154 231.242 61.3154C231.814 61.3154 232.239 61.2238 232.518 61.0404C232.804 60.8571 232.947 60.6151 232.947 60.3144C232.947 60.0944 232.866 59.9148 232.705 59.7754C232.551 59.6288 232.353 59.5151 232.111 59.4344C231.869 59.3538 231.539 59.2621 231.121 59.1594C230.534 59.0201 230.057 58.8808 229.691 58.7414C229.331 58.6021 229.02 58.3858 228.756 58.0924C228.499 57.7918 228.371 57.3884 228.371 56.8824C228.371 56.4571 228.484 56.0721 228.712 55.7274C228.946 55.3754 229.295 55.0968 229.757 54.8914C230.226 54.6861 230.798 54.5834 231.473 54.5834C231.942 54.5834 232.404 54.6421 232.859 54.7594C233.313 54.8768 233.706 55.0454 234.036 55.2654L233.585 56.3764C233.247 56.1784 232.895 56.0281 232.529 55.9254C232.162 55.8228 231.806 55.7714 231.462 55.7714C230.897 55.7714 230.475 55.8668 230.197 56.0574C229.925 56.2481 229.79 56.5011 229.79 56.8164C229.79 57.0364 229.867 57.2161 230.021 57.3554C230.182 57.4948 230.384 57.6048 230.626 57.6854C230.868 57.7661 231.198 57.8578 231.616 57.9604C232.188 58.0924 232.657 58.2318 233.024 58.3784C233.39 58.5178 233.702 58.7341 233.959 59.0274C234.223 59.3208 234.355 59.7168 234.355 60.2154C234.355 60.6408 234.237 61.0258 234.003 61.3704C233.775 61.7151 233.427 61.9901 232.958 62.1954C232.488 62.4008 231.916 62.5034 231.242 62.5034Z"
          fill="#F9AD35"/>
    <path d="M5.34214 82.6934C6.00947 82.6934 6.5888 82.8034 7.08014 83.0234C7.5788 83.2434 7.96014 83.5588 8.22414 83.9694C8.48814 84.3801 8.62014 84.8678 8.62014 85.4324C8.62014 85.9898 8.48814 86.4774 8.22414 86.8954C7.96014 87.3061 7.5788 87.6214 7.08014 87.8414C6.5888 88.0614 6.00947 88.1714 5.34214 88.1714H3.60414V90.3934H2.17414V82.6934H5.34214ZM5.27614 86.9614C5.89947 86.9614 6.37247 86.8294 6.69514 86.5654C7.0178 86.3014 7.17914 85.9238 7.17914 85.4324C7.17914 84.9411 7.0178 84.5634 6.69514 84.2994C6.37247 84.0354 5.89947 83.9034 5.27614 83.9034H3.60414V86.9614H5.27614ZM14.7794 84.4534C15.6448 84.4534 16.3048 84.6624 16.7594 85.0804C17.2214 85.4911 17.4525 86.1144 17.4525 86.9504V90.3934H16.1544V89.6784C15.9858 89.9351 15.7438 90.1331 15.4284 90.2724C15.1204 90.4044 14.7464 90.4704 14.3064 90.4704C13.8664 90.4704 13.4814 90.3971 13.1514 90.2504C12.8214 90.0964 12.5648 89.8874 12.3814 89.6234C12.2054 89.3521 12.1174 89.0478 12.1174 88.7104C12.1174 88.1824 12.3118 87.7608 12.7004 87.4454C13.0964 87.1228 13.7161 86.9614 14.5594 86.9614H16.0774V86.8734C16.0774 86.4628 15.9528 86.1474 15.7034 85.9274C15.4614 85.7074 15.0984 85.5974 14.6144 85.5974C14.2844 85.5974 13.9581 85.6488 13.6354 85.7514C13.3201 85.8541 13.0524 85.9971 12.8324 86.1804L12.2934 85.1794C12.6014 84.9448 12.9718 84.7651 13.4044 84.6404C13.8371 84.5158 14.2954 84.4534 14.7794 84.4534ZM14.5924 89.4694C14.9371 89.4694 15.2414 89.3924 15.5054 89.2384C15.7768 89.0771 15.9674 88.8498 16.0774 88.5564V87.8744H14.6584C13.8664 87.8744 13.4704 88.1348 13.4704 88.6554C13.4704 88.9048 13.5694 89.1028 13.7674 89.2494C13.9654 89.3961 14.2404 89.4694 14.5924 89.4694ZM23.7051 90.4704C23.2284 90.4704 22.7628 90.4081 22.3081 90.2834C21.8534 90.1588 21.4904 90.0011 21.2191 89.8104L21.7471 88.7654C22.0111 88.9414 22.3264 89.0844 22.6931 89.1944C23.0671 89.2971 23.4338 89.3484 23.7931 89.3484C24.6144 89.3484 25.0251 89.1321 25.0251 88.6994C25.0251 88.4941 24.9188 88.3511 24.7061 88.2704C24.5008 88.1898 24.1671 88.1128 23.7051 88.0394C23.2211 87.9661 22.8251 87.8818 22.5171 87.7864C22.2164 87.6911 21.9524 87.5261 21.7251 87.2914C21.5051 87.0494 21.3951 86.7158 21.3951 86.2904C21.3951 85.7331 21.6261 85.2894 22.0881 84.9594C22.5574 84.6221 23.1881 84.4534 23.9801 84.4534C24.3834 84.4534 24.7868 84.5011 25.1901 84.5964C25.5934 84.6844 25.9234 84.8054 26.1801 84.9594L25.6521 86.0044C25.1534 85.7111 24.5924 85.5644 23.9691 85.5644C23.5658 85.5644 23.2578 85.6268 23.0451 85.7514C22.8398 85.8688 22.7371 86.0264 22.7371 86.2244C22.7371 86.4444 22.8471 86.6021 23.0671 86.6974C23.2944 86.7854 23.6428 86.8698 24.1121 86.9504C24.5814 87.0238 24.9664 87.1081 25.2671 87.2034C25.5678 87.2988 25.8244 87.4601 26.0371 87.6874C26.2571 87.9148 26.3671 88.2374 26.3671 88.6554C26.3671 89.2054 26.1288 89.6454 25.6521 89.9754C25.1754 90.3054 24.5264 90.4704 23.7051 90.4704ZM32.0392 90.4704C31.5626 90.4704 31.0969 90.4081 30.6422 90.2834C30.1876 90.1588 29.8246 90.0011 29.5532 89.8104L30.0812 88.7654C30.3452 88.9414 30.6606 89.0844 31.0272 89.1944C31.4012 89.2971 31.7679 89.3484 32.1272 89.3484C32.9486 89.3484 33.3592 89.1321 33.3592 88.6994C33.3592 88.4941 33.2529 88.3511 33.0402 88.2704C32.8349 88.1898 32.5012 88.1128 32.0392 88.0394C31.5552 87.9661 31.1592 87.8818 30.8512 87.7864C30.5506 87.6911 30.2866 87.5261 30.0592 87.2914C29.8392 87.0494 29.7292 86.7158 29.7292 86.2904C29.7292 85.7331 29.9602 85.2894 30.4222 84.9594C30.8916 84.6221 31.5222 84.4534 32.3142 84.4534C32.7176 84.4534 33.1209 84.5011 33.5242 84.5964C33.9276 84.6844 34.2576 84.8054 34.5142 84.9594L33.9862 86.0044C33.4876 85.7111 32.9266 85.5644 32.3032 85.5644C31.8999 85.5644 31.5919 85.6268 31.3792 85.7514C31.1739 85.8688 31.0712 86.0264 31.0712 86.2244C31.0712 86.4444 31.1812 86.6021 31.4012 86.6974C31.6286 86.7854 31.9769 86.8698 32.4462 86.9504C32.9156 87.0238 33.3006 87.1081 33.6012 87.2034C33.9019 87.2988 34.1586 87.4601 34.3712 87.6874C34.5912 87.9148 34.7012 88.2374 34.7012 88.6554C34.7012 89.2054 34.4629 89.6454 33.9862 89.9754C33.5096 90.3054 32.8606 90.4704 32.0392 90.4704ZM38.5584 84.5194H39.9334V90.3934H38.5584V84.5194ZM39.2514 83.5514C39.002 83.5514 38.793 83.4744 38.6244 83.3204C38.4557 83.1591 38.3714 82.9611 38.3714 82.7264C38.3714 82.4918 38.4557 82.2974 38.6244 82.1434C38.793 81.9821 39.002 81.9014 39.2514 81.9014C39.5007 81.9014 39.7097 81.9784 39.8784 82.1324C40.047 82.2791 40.1314 82.4661 40.1314 82.6934C40.1314 82.9354 40.047 83.1408 39.8784 83.3094C39.717 83.4708 39.508 83.5514 39.2514 83.5514ZM47.051 90.4704C46.457 90.4704 45.9217 90.3421 45.445 90.0854C44.9684 89.8288 44.5944 89.4731 44.323 89.0184C44.059 88.5564 43.927 88.0358 43.927 87.4564C43.927 86.8771 44.059 86.3601 44.323 85.9054C44.5944 85.4508 44.9684 85.0951 45.445 84.8384C45.9217 84.5818 46.457 84.4534 47.051 84.4534C47.6524 84.4534 48.1914 84.5818 48.668 84.8384C49.1447 85.0951 49.515 85.4508 49.779 85.9054C50.0504 86.3601 50.186 86.8771 50.186 87.4564C50.186 88.0358 50.0504 88.5564 49.779 89.0184C49.515 89.4731 49.1447 89.8288 48.668 90.0854C48.1914 90.3421 47.6524 90.4704 47.051 90.4704ZM47.051 89.2934C47.557 89.2934 47.975 89.1248 48.305 88.7874C48.635 88.4501 48.8 88.0064 48.8 87.4564C48.8 86.9064 48.635 86.4628 48.305 86.1254C47.975 85.7881 47.557 85.6194 47.051 85.6194C46.545 85.6194 46.127 85.7881 45.797 86.1254C45.4744 86.4628 45.313 86.9064 45.313 87.4564C45.313 88.0064 45.4744 88.4501 45.797 88.7874C46.127 89.1248 46.545 89.2934 47.051 89.2934ZM57.5069 84.4534C58.2476 84.4534 58.8416 84.6698 59.2889 85.1024C59.7362 85.5351 59.9599 86.1768 59.9599 87.0274V90.3934H58.5849V87.2034C58.5849 86.6901 58.4639 86.3051 58.2219 86.0484C57.9799 85.7844 57.6352 85.6524 57.1879 85.6524C56.6819 85.6524 56.2822 85.8064 55.9889 86.1144C55.6956 86.4151 55.5489 86.8514 55.5489 87.4234V90.3934H54.1739V84.5194H55.4829V85.2784C55.7102 85.0071 55.9962 84.8018 56.3409 84.6624C56.6856 84.5231 57.0742 84.4534 57.5069 84.4534ZM69.7932 86.7634H72.8182V87.9074H69.7932V86.7634ZM82.8407 82.6934H84.2707V90.3934H82.8407V82.6934ZM92.2274 84.4534C92.968 84.4534 93.562 84.6698 94.0094 85.1024C94.4567 85.5351 94.6804 86.1768 94.6804 87.0274V90.3934H93.3054V87.2034C93.3054 86.6901 93.1844 86.3051 92.9424 86.0484C92.7004 85.7844 92.3557 85.6524 91.9084 85.6524C91.4024 85.6524 91.0027 85.8064 90.7094 86.1144C90.416 86.4151 90.2694 86.8514 90.2694 87.4234V90.3934H88.8944V84.5194H90.2034V85.2784C90.4307 85.0071 90.7167 84.8018 91.0614 84.6624C91.406 84.5231 91.7947 84.4534 92.2274 84.4534ZM102.629 90.0744C102.467 90.2064 102.269 90.3054 102.035 90.3714C101.807 90.4374 101.565 90.4704 101.309 90.4704C100.663 90.4704 100.165 90.3018 99.8126 89.9644C99.4606 89.6271 99.2846 89.1358 99.2846 88.4904V85.6634H98.3166V84.5634H99.2846V83.2214H100.66V84.5634H102.233V85.6634H100.66V88.4574C100.66 88.7434 100.729 88.9634 100.869 89.1174C101.008 89.2641 101.21 89.3374 101.474 89.3374C101.782 89.3374 102.038 89.2568 102.244 89.0954L102.629 90.0744ZM111.761 87.4894C111.761 87.5848 111.754 87.7204 111.739 87.8964H107.13C107.211 88.3291 107.42 88.6738 107.757 88.9304C108.102 89.1798 108.527 89.3044 109.033 89.3044C109.679 89.3044 110.21 89.0918 110.628 88.6664L111.365 89.5134C111.101 89.8288 110.768 90.0671 110.364 90.2284C109.961 90.3898 109.506 90.4704 109 90.4704C108.355 90.4704 107.787 90.3421 107.295 90.0854C106.804 89.8288 106.423 89.4731 106.151 89.0184C105.887 88.5564 105.755 88.0358 105.755 87.4564C105.755 86.8844 105.884 86.3711 106.14 85.9164C106.404 85.4544 106.767 85.0951 107.229 84.8384C107.691 84.5818 108.212 84.4534 108.791 84.4534C109.363 84.4534 109.873 84.5818 110.32 84.8384C110.775 85.0878 111.127 85.4434 111.376 85.9054C111.633 86.3601 111.761 86.8881 111.761 87.4894ZM108.791 85.5534C108.351 85.5534 107.977 85.6854 107.669 85.9494C107.369 86.2061 107.185 86.5508 107.119 86.9834H110.452C110.394 86.5581 110.214 86.2134 109.913 85.9494C109.613 85.6854 109.239 85.5534 108.791 85.5534ZM121.585 84.5194V89.5024C121.585 91.5704 120.529 92.6044 118.417 92.6044C117.852 92.6044 117.317 92.5311 116.811 92.3844C116.305 92.2451 115.887 92.0398 115.557 91.7684L116.173 90.7344C116.43 90.9471 116.752 91.1158 117.141 91.2404C117.537 91.3724 117.937 91.4384 118.34 91.4384C118.985 91.4384 119.458 91.2918 119.759 90.9984C120.06 90.7051 120.21 90.2578 120.21 89.6564V89.3484C119.975 89.6051 119.689 89.7994 119.352 89.9314C119.015 90.0634 118.644 90.1294 118.241 90.1294C117.684 90.1294 117.178 90.0121 116.723 89.7774C116.276 89.5354 115.92 89.1981 115.656 88.7654C115.399 88.3328 115.271 87.8378 115.271 87.2804C115.271 86.7231 115.399 86.2318 115.656 85.8064C115.92 85.3738 116.276 85.0401 116.723 84.8054C117.178 84.5708 117.684 84.4534 118.241 84.4534C118.666 84.4534 119.051 84.5231 119.396 84.6624C119.748 84.8018 120.041 85.0144 120.276 85.3004V84.5194H121.585ZM118.45 88.9634C118.971 88.9634 119.396 88.8094 119.726 88.5014C120.063 88.1861 120.232 87.7791 120.232 87.2804C120.232 86.7891 120.063 86.3894 119.726 86.0814C119.396 85.7734 118.971 85.6194 118.45 85.6194C117.922 85.6194 117.489 85.7734 117.152 86.0814C116.822 86.3894 116.657 86.7891 116.657 87.2804C116.657 87.7791 116.822 88.1861 117.152 88.5014C117.489 88.8094 117.922 88.9634 118.45 88.9634ZM127.375 85.3774C127.771 84.7614 128.468 84.4534 129.465 84.4534V85.7624C129.348 85.7404 129.241 85.7294 129.146 85.7294C128.611 85.7294 128.193 85.8871 127.892 86.2024C127.591 86.5104 127.441 86.9578 127.441 87.5444V90.3934H126.066V84.5194H127.375V85.3774ZM133.304 84.5194H134.679V90.3934H133.304V84.5194ZM133.997 83.5514C133.748 83.5514 133.539 83.4744 133.37 83.3204C133.202 83.1591 133.117 82.9611 133.117 82.7264C133.117 82.4918 133.202 82.2974 133.37 82.1434C133.539 81.9821 133.748 81.9014 133.997 81.9014C134.247 81.9014 134.456 81.9784 134.624 82.1324C134.793 82.2791 134.877 82.4661 134.877 82.6934C134.877 82.9354 134.793 83.1408 134.624 83.3094C134.463 83.4708 134.254 83.5514 133.997 83.5514ZM142.688 90.0744C142.527 90.2064 142.329 90.3054 142.094 90.3714C141.867 90.4374 141.625 90.4704 141.368 90.4704C140.723 90.4704 140.224 90.3018 139.872 89.9644C139.52 89.6271 139.344 89.1358 139.344 88.4904V85.6634H138.376V84.5634H139.344V83.2214H140.719V84.5634H142.292V85.6634H140.719V88.4574C140.719 88.7434 140.789 88.9634 140.928 89.1174C141.067 89.2641 141.269 89.3374 141.533 89.3374C141.841 89.3374 142.098 89.2568 142.303 89.0954L142.688 90.0744ZM151.885 84.5194L149.135 90.8664C148.878 91.5044 148.566 91.9518 148.2 92.2084C147.833 92.4724 147.389 92.6044 146.869 92.6044C146.575 92.6044 146.286 92.5568 146 92.4614C145.714 92.3661 145.479 92.2341 145.296 92.0654L145.846 91.0534C145.978 91.1781 146.132 91.2771 146.308 91.3504C146.491 91.4238 146.674 91.4604 146.858 91.4604C147.1 91.4604 147.298 91.3981 147.452 91.2734C147.613 91.1488 147.76 90.9398 147.892 90.6464L147.991 90.4154L145.428 84.5194H146.858L148.706 88.8644L150.565 84.5194H151.885ZM160.833 86.7634H163.858V87.9074H160.833V86.7634ZM178.919 90.3934L177.346 88.1384C177.28 88.1458 177.181 88.1494 177.049 88.1494H175.311V90.3934H173.881V82.6934H177.049C177.716 82.6934 178.295 82.8034 178.787 83.0234C179.285 83.2434 179.667 83.5588 179.931 83.9694C180.195 84.3801 180.327 84.8678 180.327 85.4324C180.327 86.0118 180.184 86.5104 179.898 86.9284C179.619 87.3464 179.216 87.6581 178.688 87.8634L180.459 90.3934H178.919ZM178.886 85.4324C178.886 84.9411 178.724 84.5634 178.402 84.2994C178.079 84.0354 177.606 83.9034 176.983 83.9034H175.311V86.9724H176.983C177.606 86.9724 178.079 86.8404 178.402 86.5764C178.724 86.3051 178.886 85.9238 178.886 85.4324ZM189.989 87.4894C189.989 87.5848 189.982 87.7204 189.967 87.8964H185.358C185.439 88.3291 185.648 88.6738 185.985 88.9304C186.33 89.1798 186.755 89.3044 187.261 89.3044C187.907 89.3044 188.438 89.0918 188.856 88.6664L189.593 89.5134C189.329 89.8288 188.996 90.0671 188.592 90.2284C188.189 90.3898 187.734 90.4704 187.228 90.4704C186.583 90.4704 186.015 90.3421 185.523 90.0854C185.032 89.8288 184.651 89.4731 184.379 89.0184C184.115 88.5564 183.983 88.0358 183.983 87.4564C183.983 86.8844 184.112 86.3711 184.368 85.9164C184.632 85.4544 184.995 85.0951 185.457 84.8384C185.919 84.5818 186.44 84.4534 187.019 84.4534C187.591 84.4534 188.101 84.5818 188.548 84.8384C189.003 85.0878 189.355 85.4434 189.604 85.9054C189.861 86.3601 189.989 86.8881 189.989 87.4894ZM187.019 85.5534C186.579 85.5534 186.205 85.6854 185.897 85.9494C185.597 86.2061 185.413 86.5508 185.347 86.9834H188.68C188.622 86.5581 188.442 86.2134 188.141 85.9494C187.841 85.6854 187.467 85.5534 187.019 85.5534ZM195.798 90.4704C195.322 90.4704 194.856 90.4081 194.401 90.2834C193.947 90.1588 193.584 90.0011 193.312 89.8104L193.84 88.7654C194.104 88.9414 194.42 89.0844 194.786 89.1944C195.16 89.2971 195.527 89.3484 195.886 89.3484C196.708 89.3484 197.118 89.1321 197.118 88.6994C197.118 88.4941 197.012 88.3511 196.799 88.2704C196.594 88.1898 196.26 88.1128 195.798 88.0394C195.314 87.9661 194.918 87.8818 194.61 87.7864C194.31 87.6911 194.046 87.5261 193.818 87.2914C193.598 87.0494 193.488 86.7158 193.488 86.2904C193.488 85.7331 193.719 85.2894 194.181 84.9594C194.651 84.6221 195.281 84.4534 196.073 84.4534C196.477 84.4534 196.88 84.5011 197.283 84.5964C197.687 84.6844 198.017 84.8054 198.273 84.9594L197.745 86.0044C197.247 85.7111 196.686 85.5644 196.062 85.5644C195.659 85.5644 195.351 85.6268 195.138 85.7514C194.933 85.8688 194.83 86.0264 194.83 86.2244C194.83 86.4444 194.94 86.6021 195.16 86.6974C195.388 86.7854 195.736 86.8698 196.205 86.9504C196.675 87.0238 197.06 87.1081 197.36 87.2034C197.661 87.2988 197.918 87.4601 198.13 87.6874C198.35 87.9148 198.46 88.2374 198.46 88.6554C198.46 89.2054 198.222 89.6454 197.745 89.9754C197.269 90.3054 196.62 90.4704 195.798 90.4704ZM205.573 84.4534C206.145 84.4534 206.655 84.5781 207.102 84.8274C207.557 85.0768 207.913 85.4288 208.169 85.8834C208.426 86.3381 208.554 86.8624 208.554 87.4564C208.554 88.0504 208.426 88.5784 208.169 89.0404C207.913 89.4951 207.557 89.8471 207.102 90.0964C206.655 90.3458 206.145 90.4704 205.573 90.4704C204.781 90.4704 204.154 90.2064 203.692 89.6784V92.5274H202.317V84.5194H203.626V85.2894C203.854 85.0108 204.132 84.8018 204.462 84.6624C204.8 84.5231 205.17 84.4534 205.573 84.4534ZM205.419 89.2934C205.925 89.2934 206.34 89.1248 206.662 88.7874C206.992 88.4501 207.157 88.0064 207.157 87.4564C207.157 86.9064 206.992 86.4628 206.662 86.1254C206.34 85.7881 205.925 85.6194 205.419 85.6194C205.089 85.6194 204.792 85.6964 204.528 85.8504C204.264 85.9971 204.055 86.2098 203.901 86.4884C203.747 86.7671 203.67 87.0898 203.67 87.4564C203.67 87.8231 203.747 88.1458 203.901 88.4244C204.055 88.7031 204.264 88.9194 204.528 89.0734C204.792 89.2201 205.089 89.2934 205.419 89.2934ZM218.053 87.4894C218.053 87.5848 218.046 87.7204 218.031 87.8964H213.422C213.503 88.3291 213.712 88.6738 214.049 88.9304C214.394 89.1798 214.819 89.3044 215.325 89.3044C215.971 89.3044 216.502 89.0918 216.92 88.6664L217.657 89.5134C217.393 89.8288 217.06 90.0671 216.656 90.2284C216.253 90.3898 215.798 90.4704 215.292 90.4704C214.647 90.4704 214.079 90.3421 213.587 90.0854C213.096 89.8288 212.715 89.4731 212.443 89.0184C212.179 88.5564 212.047 88.0358 212.047 87.4564C212.047 86.8844 212.176 86.3711 212.432 85.9164C212.696 85.4544 213.059 85.0951 213.521 84.8384C213.983 84.5818 214.504 84.4534 215.083 84.4534C215.655 84.4534 216.165 84.5818 216.612 84.8384C217.067 85.0878 217.419 85.4434 217.668 85.9054C217.925 86.3601 218.053 86.8881 218.053 87.4894ZM215.083 85.5534C214.643 85.5534 214.269 85.6854 213.961 85.9494C213.661 86.2061 213.477 86.5508 213.411 86.9834H216.744C216.686 86.5581 216.506 86.2134 216.205 85.9494C215.905 85.6854 215.531 85.5534 215.083 85.5534ZM224.742 90.4704C224.133 90.4704 223.587 90.3421 223.103 90.0854C222.619 89.8288 222.241 89.4731 221.97 89.0184C221.699 88.5564 221.563 88.0358 221.563 87.4564C221.563 86.8771 221.699 86.3601 221.97 85.9054C222.241 85.4508 222.615 85.0951 223.092 84.8384C223.576 84.5818 224.126 84.4534 224.742 84.4534C225.321 84.4534 225.827 84.5708 226.26 84.8054C226.7 85.0401 227.03 85.3774 227.25 85.8174L226.194 86.4334C226.025 86.1621 225.813 85.9604 225.556 85.8284C225.307 85.6891 225.032 85.6194 224.731 85.6194C224.218 85.6194 223.792 85.7881 223.455 86.1254C223.118 86.4554 222.949 86.8991 222.949 87.4564C222.949 88.0138 223.114 88.4611 223.444 88.7984C223.781 89.1284 224.21 89.2934 224.731 89.2934C225.032 89.2934 225.307 89.2274 225.556 89.0954C225.813 88.9561 226.025 88.7508 226.194 88.4794L227.25 89.0954C227.023 89.5354 226.689 89.8764 226.249 90.1184C225.816 90.3531 225.314 90.4704 224.742 90.4704ZM234.718 90.0744C234.557 90.2064 234.359 90.3054 234.124 90.3714C233.897 90.4374 233.655 90.4704 233.398 90.4704C232.753 90.4704 232.254 90.3018 231.902 89.9644C231.55 89.6271 231.374 89.1358 231.374 88.4904V85.6634H230.406V84.5634H231.374V83.2214H232.749V84.5634H234.322V85.6634H232.749V88.4574C232.749 88.7434 232.819 88.9634 232.958 89.1174C233.097 89.2641 233.299 89.3374 233.563 89.3374C233.871 89.3374 234.128 89.2568 234.333 89.0954L234.718 90.0744Z"
          fill="white"/>
</svg>
