<svg width="130" height="22" viewBox="0 0 130 22" fill="none" xmlns="http://www.w3.org/2000/svg">
<path d="M13.4449 8.0866L10.8641 1.05615L8.28333 8.0866H0.763428L6.59247 12.7587L4.54563 20.0562L10.9086 15.7845L17.2716 20.0562L15.1803 12.7587L21.0093 8.0866H13.4449Z" fill="#F9AD35"/>
<path d="M40.4452 8.0866L37.8644 1.05615L35.2836 8.0866H27.7637L33.5927 12.7587L31.5459 20.0562L37.9089 15.7845L44.2719 20.0562L42.1805 12.7587L48.0096 8.0866H40.4452Z" fill="#F9AD35"/>
<path d="M67.4452 8.0866L64.8644 1.05615L62.2836 8.0866H54.7637L60.5927 12.7587L58.5459 20.0562L64.9089 15.7845L71.2719 20.0562L69.1805 12.7587L75.0096 8.0866H67.4452Z" fill="#F9AD35"/>
<path d="M94.4452 8.0866L91.8644 1.05615L89.2836 8.0866H81.7637L87.5927 12.7587L85.5459 20.0562L91.9089 15.7845L98.2719 20.0562L96.1805 12.7587L102.01 8.0866H94.4452Z" fill="#F9AD35"/>
<path d="M120.778 8.71657L118.333 2.05615L115.888 8.71657H108.764L114.286 13.1428L112.347 20.0562L118.375 16.0093L124.403 20.0562L122.422 13.1428L127.944 8.71657H120.778Z" stroke="#F9AD35"/>
</svg>
