<svg width="250" height="67" viewBox="0 0 250 67" fill="none" xmlns="http://www.w3.org/2000/svg">
<path d="M40.5247 2.1665L25.2747 37.1665H18.8747L3.57471 2.1665H10.6247L22.2747 29.1665L34.0247 2.1665H40.5247ZM77.9681 31.7165V37.1665H51.7181V2.1665H77.2681V7.6165H58.2181V16.7165H75.1181V22.0665H58.2181V31.7165H77.9681ZM115.614 37.1665L108.464 26.9165C108.164 26.9498 107.714 26.9665 107.114 26.9665H99.2142V37.1665H92.7142V2.1665H107.114C110.147 2.1665 112.781 2.6665 115.014 3.6665C117.281 4.6665 119.014 6.09983 120.214 7.9665C121.414 9.83317 122.014 12.0498 122.014 14.6165C122.014 17.2498 121.364 19.5165 120.064 21.4165C118.797 23.3165 116.964 24.7332 114.564 25.6665L122.614 37.1665H115.614ZM115.464 14.6165C115.464 12.3832 114.731 10.6665 113.264 9.4665C111.797 8.2665 109.647 7.6665 106.814 7.6665H99.2142V21.6165H106.814C109.647 21.6165 111.797 21.0165 113.264 19.8165C114.731 18.5832 115.464 16.8498 115.464 14.6165ZM159.686 37.1665L152.536 26.9165C152.236 26.9498 151.786 26.9665 151.186 26.9665H143.286V37.1665H136.786V2.1665H151.186C154.22 2.1665 156.853 2.6665 159.086 3.6665C161.353 4.6665 163.086 6.09983 164.286 7.9665C165.486 9.83317 166.086 12.0498 166.086 14.6165C166.086 17.2498 165.436 19.5165 164.136 21.4165C162.87 23.3165 161.036 24.7332 158.636 25.6665L166.686 37.1665H159.686ZM159.536 14.6165C159.536 12.3832 158.803 10.6665 157.336 9.4665C155.87 8.2665 153.72 7.6665 150.886 7.6665H143.286V21.6165H150.886C153.72 21.6165 155.87 21.0165 157.336 19.8165C158.803 18.5832 159.536 16.8498 159.536 14.6165ZM180.859 2.1665H196.159C199.892 2.1665 203.209 2.89984 206.109 4.3665C209.009 5.79984 211.259 7.84984 212.859 10.5165C214.459 13.1498 215.259 16.1998 215.259 19.6665C215.259 23.1332 214.459 26.1998 212.859 28.8665C211.259 31.4998 209.009 33.5498 206.109 35.0165C203.209 36.4498 199.892 37.1665 196.159 37.1665H180.859V2.1665ZM195.859 31.6665C198.425 31.6665 200.675 31.1832 202.609 30.2165C204.575 29.2165 206.075 27.8165 207.109 26.0165C208.175 24.1832 208.709 22.0665 208.709 19.6665C208.709 17.2665 208.175 15.1665 207.109 13.3665C206.075 11.5332 204.575 10.1332 202.609 9.1665C200.675 8.1665 198.425 7.6665 195.859 7.6665H187.359V31.6665H195.859ZM229.667 2.1665H236.167V37.1665H229.667V2.1665Z" fill="#014124"/>
<path d="M4.00778 58.8506H0.875777V57.3656H8.89478V58.8506H5.76278V66.8156H4.00778V58.8506ZM18.7304 66.8156L16.7999 64.0481C16.7189 64.0571 16.5974 64.0616 16.4354 64.0616H14.3024V66.8156H12.5474V57.3656H16.4354C17.2544 57.3656 17.9654 57.5006 18.5684 57.7706C19.1804 58.0406 19.6484 58.4276 19.9724 58.9316C20.2964 59.4356 20.4584 60.0341 20.4584 60.7271C20.4584 61.4381 20.2829 62.0501 19.9319 62.5631C19.5899 63.0761 19.0949 63.4586 18.4469 63.7106L20.6204 66.8156H18.7304ZM18.6899 60.7271C18.6899 60.1241 18.4919 59.6606 18.0959 59.3366C17.6999 59.0126 17.1194 58.8506 16.3544 58.8506H14.3024V62.6171H16.3544C17.1194 62.6171 17.6999 62.4551 18.0959 62.1311C18.4919 61.7981 18.6899 61.3301 18.6899 60.7271ZM30.8864 64.6286H26.1614L25.2299 66.8156H23.4209L27.6734 57.3656H29.4014L33.6674 66.8156H31.8314L30.8864 64.6286ZM30.3059 63.2516L28.5239 59.1206L26.7554 63.2516H30.3059ZM37.2047 57.3656H38.9597V66.8156H37.2047V57.3656ZM52.2482 57.3656V66.8156H50.8037L45.5927 60.4166V66.8156H43.8512V57.3656H45.2957L50.5067 63.7646V57.3656H52.2482ZM57.1159 57.3656H58.8709V66.8156H57.1159V57.3656ZM72.1595 57.3656V66.8156H70.715L65.504 60.4166V66.8156H63.7625V57.3656H65.207L70.418 63.7646V57.3656H72.1595ZM83.4802 61.9826H85.1407V65.7491C84.6547 66.1361 84.0877 66.4331 83.4397 66.6401C82.7917 66.8471 82.1257 66.9506 81.4417 66.9506C80.4787 66.9506 79.6102 66.7436 78.8362 66.3296C78.0622 65.9066 77.4547 65.3261 77.0137 64.5881C76.5727 63.8501 76.3522 63.0176 76.3522 62.0906C76.3522 61.1636 76.5727 60.3311 77.0137 59.5931C77.4547 58.8551 78.0622 58.2791 78.8362 57.8651C79.6192 57.4421 80.4967 57.2306 81.4687 57.2306C82.2607 57.2306 82.9807 57.3611 83.6287 57.6221C84.2767 57.8831 84.8212 58.2656 85.2622 58.7696L84.1552 59.8496C83.4352 59.1296 82.5667 58.7696 81.5497 58.7696C80.8837 58.7696 80.2897 58.9091 79.7677 59.1881C79.2547 59.4671 78.8497 59.8586 78.5527 60.3626C78.2647 60.8666 78.1207 61.4426 78.1207 62.0906C78.1207 62.7206 78.2647 63.2876 78.5527 63.7916C78.8497 64.2956 79.2547 64.6916 79.7677 64.9796C80.2897 65.2676 80.8792 65.4116 81.5362 65.4116C82.2742 65.4116 82.9222 65.2496 83.4802 64.9256V61.9826ZM102.945 66.9641L101.757 65.8166C100.875 66.5726 99.8173 66.9506 98.5843 66.9506C97.9273 66.9506 97.3378 66.8426 96.8158 66.6266C96.2938 66.4106 95.8843 66.1136 95.5873 65.7356C95.2903 65.3486 95.1418 64.9121 95.1418 64.4261C95.1418 63.8411 95.3128 63.3281 95.6548 62.8871C95.9968 62.4371 96.5548 61.9961 97.3288 61.5641C96.9508 61.1861 96.6808 60.8351 96.5188 60.5111C96.3568 60.1781 96.2758 59.8361 96.2758 59.4851C96.2758 58.8191 96.5233 58.2836 97.0183 57.8786C97.5223 57.4646 98.1883 57.2576 99.0163 57.2576C99.7813 57.2576 100.393 57.4466 100.852 57.8246C101.311 58.1936 101.541 58.6976 101.541 59.3366C101.541 59.8226 101.388 60.2546 101.082 60.6326C100.785 61.0106 100.294 61.3931 99.6103 61.7801L101.649 63.7241C101.874 63.2831 102.049 62.7521 102.175 62.1311L103.539 62.5766C103.359 63.4136 103.075 64.1336 102.688 64.7366L103.876 65.8706L102.945 66.9641ZM99.0163 58.4591C98.6473 58.4591 98.3548 58.5536 98.1388 58.7426C97.9228 58.9226 97.8148 59.1611 97.8148 59.4581C97.8148 59.6741 97.8733 59.8811 97.9903 60.0791C98.1073 60.2681 98.3323 60.5291 98.6653 60.8621C99.2053 60.5651 99.5788 60.3086 99.7858 60.0926C100.002 59.8676 100.11 59.6246 100.11 59.3636C100.11 59.0846 100.011 58.8641 99.8128 58.7021C99.6238 58.5401 99.3583 58.4591 99.0163 58.4591ZM98.7058 65.5736C99.4888 65.5736 100.173 65.3351 100.758 64.8581L98.2603 62.4686C97.7203 62.7656 97.3378 63.0536 97.1128 63.3326C96.8968 63.6026 96.7888 63.9086 96.7888 64.2506C96.7888 64.6466 96.9643 64.9661 97.3153 65.2091C97.6663 65.4521 98.1298 65.5736 98.7058 65.5736ZM119.974 66.8156L118.044 64.0481C117.963 64.0571 117.841 64.0616 117.679 64.0616H115.546V66.8156H113.791V57.3656H117.679C118.498 57.3656 119.209 57.5006 119.812 57.7706C120.424 58.0406 120.892 58.4276 121.216 58.9316C121.54 59.4356 121.702 60.0341 121.702 60.7271C121.702 61.4381 121.527 62.0501 121.176 62.5631C120.834 63.0761 120.339 63.4586 119.691 63.7106L121.864 66.8156H119.974ZM119.934 60.7271C119.934 60.1241 119.736 59.6606 119.34 59.3366C118.944 59.0126 118.363 58.8506 117.598 58.8506H115.546V62.6171H117.598C118.363 62.6171 118.944 62.4551 119.34 62.1311C119.736 61.7981 119.934 61.3301 119.934 60.7271ZM133.089 65.3441V66.8156H126.001V57.3656H132.9V58.8371H127.756V61.2941H132.319V62.7386H127.756V65.3441H133.089ZM141.715 66.9506C140.761 66.9506 139.897 66.7436 139.123 66.3296C138.358 65.9066 137.755 65.3261 137.314 64.5881C136.882 63.8501 136.666 63.0176 136.666 62.0906C136.666 61.1636 136.886 60.3311 137.327 59.5931C137.768 58.8551 138.371 58.2791 139.136 57.8651C139.91 57.4421 140.774 57.2306 141.728 57.2306C142.502 57.2306 143.209 57.3656 143.848 57.6356C144.487 57.9056 145.027 58.2971 145.468 58.8101L144.334 59.8766C143.65 59.1386 142.808 58.7696 141.809 58.7696C141.161 58.7696 140.581 58.9136 140.068 59.2016C139.555 59.4806 139.154 59.8721 138.866 60.3761C138.578 60.8801 138.434 61.4516 138.434 62.0906C138.434 62.7296 138.578 63.3011 138.866 63.8051C139.154 64.3091 139.555 64.7051 140.068 64.9931C140.581 65.2721 141.161 65.4116 141.809 65.4116C142.808 65.4116 143.65 65.0381 144.334 64.2911L145.468 65.3711C145.027 65.8841 144.482 66.2756 143.834 66.5456C143.195 66.8156 142.489 66.9506 141.715 66.9506ZM155.668 66.8156L153.738 64.0481C153.657 64.0571 153.535 64.0616 153.373 64.0616H151.24V66.8156H149.485V57.3656H153.373C154.192 57.3656 154.903 57.5006 155.506 57.7706C156.118 58.0406 156.586 58.4276 156.91 58.9316C157.234 59.4356 157.396 60.0341 157.396 60.7271C157.396 61.4381 157.221 62.0501 156.87 62.5631C156.528 63.0761 156.033 63.4586 155.385 63.7106L157.558 66.8156H155.668ZM155.628 60.7271C155.628 60.1241 155.43 59.6606 155.034 59.3366C154.638 59.0126 154.057 58.8506 153.292 58.8506H151.24V62.6171H153.292C154.057 62.6171 154.638 62.4551 155.034 62.1311C155.43 61.7981 155.628 61.3301 155.628 60.7271ZM165.759 66.9506C164.454 66.9506 163.437 66.5861 162.708 65.8571C161.979 65.1191 161.614 64.0661 161.614 62.6981V57.3656H163.369V62.6306C163.369 64.4846 164.17 65.4116 165.772 65.4116C167.365 65.4116 168.162 64.4846 168.162 62.6306V57.3656H169.89V62.6981C169.89 64.0661 169.525 65.1191 168.796 65.8571C168.076 66.5861 167.064 66.9506 165.759 66.9506ZM174.683 57.3656H176.438V66.8156H174.683V57.3656ZM183.246 58.8506H180.114V57.3656H188.133V58.8506H185.001V66.8156H183.246V58.8506ZM200.467 66.8156L200.453 60.5516L197.348 65.7356H196.565L193.46 60.6326V66.8156H191.786V57.3656H193.231L196.984 63.6296L200.669 57.3656H202.114L202.127 66.8156H200.467ZM214.103 65.3441V66.8156H207.015V57.3656H213.914V58.8371H208.77V61.2941H213.333V62.7386H208.77V65.3441H214.103ZM226.792 57.3656V66.8156H225.347L220.136 60.4166V66.8156H218.395V57.3656H219.839L225.05 63.7646V57.3656H226.792ZM233.576 58.8506H230.444V57.3656H238.463V58.8506H235.331V66.8156H233.576V58.8506Z" fill="#F9AD35"/>
</svg>
