<svg width="354" height="81" viewBox="0 0 354 81" fill="none" xmlns="http://www.w3.org/2000/svg">
    <path d="M0.769165 31.5443V15.3361L47.2772 48.1801L0.773374 80.634V64.8333L24.2322 48.1851L0.769165 31.5443Z"
          fill="#014124"/>
    <path d="M81.1246 16.8422V0.634033L34.6179 33.478L81.1204 65.9319V50.1312L57.6622 33.483L81.1246 16.8422Z"
          fill="#F9AD35"/>
    <path d="M144.437 10.3095L129.187 45.3095H122.787L107.487 10.3095H114.537L126.187 37.3095L137.937 10.3095H144.437ZM181.88 39.8595V45.3095H155.63V10.3095H181.18V15.7595H162.13V24.8595H179.03V30.2095H162.13V39.8595H181.88ZM219.526 45.3095L212.376 35.0595C212.076 35.0928 211.626 35.1095 211.026 35.1095H203.126V45.3095H196.626V10.3095H211.026C214.059 10.3095 216.693 10.8095 218.926 11.8095C221.193 12.8095 222.926 14.2428 224.126 16.1095C225.326 17.9762 225.926 20.1928 225.926 22.7595C225.926 25.3928 225.276 27.6595 223.976 29.5595C222.709 31.4595 220.876 32.8762 218.476 33.8095L226.526 45.3095H219.526ZM219.376 22.7595C219.376 20.5262 218.643 18.8095 217.176 17.6095C215.709 16.4095 213.559 15.8095 210.726 15.8095H203.126V29.7595H210.726C213.559 29.7595 215.709 29.1595 217.176 27.9595C218.643 26.7262 219.376 24.9928 219.376 22.7595ZM263.598 45.3095L256.448 35.0595C256.148 35.0928 255.698 35.1095 255.098 35.1095H247.198V45.3095H240.698V10.3095H255.098C258.132 10.3095 260.765 10.8095 262.998 11.8095C265.265 12.8095 266.998 14.2428 268.198 16.1095C269.398 17.9762 269.998 20.1928 269.998 22.7595C269.998 25.3928 269.348 27.6595 268.048 29.5595C266.782 31.4595 264.948 32.8762 262.548 33.8095L270.598 45.3095H263.598ZM263.448 22.7595C263.448 20.5262 262.715 18.8095 261.248 17.6095C259.782 16.4095 257.632 15.8095 254.798 15.8095H247.198V29.7595H254.798C257.632 29.7595 259.782 29.1595 261.248 27.9595C262.715 26.7262 263.448 24.9928 263.448 22.7595ZM284.771 10.3095H300.071C303.804 10.3095 307.121 11.0428 310.021 12.5095C312.921 13.9428 315.171 15.9928 316.771 18.6595C318.371 21.2928 319.171 24.3428 319.171 27.8095C319.171 31.2762 318.371 34.3428 316.771 37.0095C315.171 39.6428 312.921 41.6928 310.021 43.1595C307.121 44.5928 303.804 45.3095 300.071 45.3095H284.771V10.3095ZM299.771 39.8095C302.337 39.8095 304.587 39.3262 306.521 38.3595C308.487 37.3595 309.987 35.9595 311.021 34.1595C312.087 32.3262 312.621 30.2095 312.621 27.8095C312.621 25.4095 312.087 23.3095 311.021 21.5095C309.987 19.6762 308.487 18.2762 306.521 17.3095C304.587 16.3095 302.337 15.8095 299.771 15.8095H291.271V39.8095H299.771ZM333.579 10.3095H340.079V45.3095H333.579V10.3095Z"
          fill="#014124"/>
    <path d="M112.33 63.4686H109.778V62.2586H116.312V63.4686H113.76V69.9586H112.33V63.4686ZM124.326 69.9586L122.753 67.7036C122.687 67.7109 122.588 67.7146 122.456 67.7146H120.718V69.9586H119.288V62.2586H122.456C123.123 62.2586 123.703 62.3686 124.194 62.5886C124.693 62.8086 125.074 63.1239 125.338 63.5346C125.602 63.9452 125.734 64.4329 125.734 64.9976C125.734 65.5769 125.591 66.0756 125.305 66.4936C125.026 66.9116 124.623 67.2232 124.095 67.4286L125.866 69.9586H124.326ZM124.293 64.9976C124.293 64.5062 124.132 64.1286 123.809 63.8646C123.486 63.6006 123.013 63.4686 122.39 63.4686H120.718V66.5376H122.39C123.013 66.5376 123.486 66.4056 123.809 66.1416C124.132 65.8702 124.293 65.4889 124.293 64.9976ZM134.231 68.1766H130.381L129.622 69.9586H128.148L131.613 62.2586H133.021L136.497 69.9586H135.001L134.231 68.1766ZM133.758 67.0546L132.306 63.6886L130.865 67.0546H133.758ZM146.221 62.2586V69.9586H145.044L140.798 64.7446V69.9586H139.379V62.2586H140.556L144.802 67.4726V62.2586H146.221ZM152.575 70.0686C151.981 70.0686 151.405 69.9842 150.848 69.8156C150.298 69.6469 149.861 69.4232 149.539 69.1446L150.034 68.0336C150.349 68.2829 150.734 68.4882 151.189 68.6496C151.651 68.8036 152.113 68.8806 152.575 68.8806C153.147 68.8806 153.572 68.7889 153.851 68.6056C154.137 68.4222 154.28 68.1802 154.28 67.8796C154.28 67.6596 154.199 67.4799 154.038 67.3406C153.884 67.1939 153.686 67.0802 153.444 66.9996C153.202 66.9189 152.872 66.8272 152.454 66.7246C151.867 66.5852 151.39 66.4459 151.024 66.3066C150.664 66.1672 150.353 65.9509 150.089 65.6576C149.832 65.3569 149.704 64.9536 149.704 64.4476C149.704 64.0222 149.817 63.6372 150.045 63.2926C150.279 62.9406 150.628 62.6619 151.09 62.4566C151.559 62.2512 152.131 62.1486 152.806 62.1486C153.275 62.1486 153.737 62.2072 154.192 62.3246C154.646 62.4419 155.039 62.6106 155.369 62.8306L154.918 63.9416C154.58 63.7436 154.228 63.5932 153.862 63.4906C153.495 63.3879 153.139 63.3366 152.795 63.3366C152.23 63.3366 151.808 63.4319 151.53 63.6226C151.258 63.8132 151.123 64.0662 151.123 64.3816C151.123 64.6016 151.2 64.7812 151.354 64.9206C151.515 65.0599 151.717 65.1699 151.959 65.2506C152.201 65.3312 152.531 65.4229 152.949 65.5256C153.521 65.6576 153.99 65.7969 154.357 65.9436C154.723 66.0829 155.035 66.2992 155.292 66.5926C155.556 66.8859 155.688 67.2819 155.688 67.7806C155.688 68.2059 155.57 68.5909 155.336 68.9356C155.108 69.2802 154.76 69.5552 154.291 69.7606C153.821 69.9659 153.249 70.0686 152.575 70.0686ZM162.176 62.2586C162.844 62.2586 163.423 62.3686 163.914 62.5886C164.413 62.8086 164.794 63.1239 165.058 63.5346C165.322 63.9452 165.454 64.4329 165.454 64.9976C165.454 65.5549 165.322 66.0426 165.058 66.4606C164.794 66.8712 164.413 67.1866 163.914 67.4066C163.423 67.6266 162.844 67.7366 162.176 67.7366H160.438V69.9586H159.008V62.2586H162.176ZM162.11 66.5266C162.734 66.5266 163.207 66.3946 163.529 66.1306C163.852 65.8666 164.013 65.4889 164.013 64.9976C164.013 64.5062 163.852 64.1286 163.529 63.8646C163.207 63.6006 162.734 63.4686 162.11 63.4686H160.438V66.5266H162.11ZM172.49 70.0686C171.705 70.0686 170.998 69.8999 170.367 69.5626C169.736 69.2179 169.241 68.7449 168.882 68.1436C168.523 67.5349 168.343 66.8566 168.343 66.1086C168.343 65.3606 168.523 64.6859 168.882 64.0846C169.241 63.4759 169.736 63.0029 170.367 62.6656C170.998 62.3209 171.705 62.1486 172.49 62.1486C173.275 62.1486 173.982 62.3209 174.613 62.6656C175.244 63.0029 175.739 63.4722 176.098 64.0736C176.457 64.6749 176.637 65.3532 176.637 66.1086C176.637 66.8639 176.457 67.5422 176.098 68.1436C175.739 68.7449 175.244 69.2179 174.613 69.5626C173.982 69.8999 173.275 70.0686 172.49 70.0686ZM172.49 68.8146C173.003 68.8146 173.465 68.7009 173.876 68.4736C174.287 68.2389 174.609 67.9162 174.844 67.5056C175.079 67.0876 175.196 66.6219 175.196 66.1086C175.196 65.5952 175.079 65.1332 174.844 64.7226C174.609 64.3046 174.287 63.9819 173.876 63.7546C173.465 63.5199 173.003 63.4026 172.49 63.4026C171.977 63.4026 171.515 63.5199 171.104 63.7546C170.693 63.9819 170.371 64.3046 170.136 64.7226C169.901 65.1332 169.784 65.5952 169.784 66.1086C169.784 66.6219 169.901 67.0876 170.136 67.5056C170.371 67.9162 170.693 68.2389 171.104 68.4736C171.515 68.7009 171.977 68.8146 172.49 68.8146ZM185.094 69.9586L183.521 67.7036C183.455 67.7109 183.356 67.7146 183.224 67.7146H181.486V69.9586H180.056V62.2586H183.224C183.891 62.2586 184.47 62.3686 184.962 62.5886C185.46 62.8086 185.842 63.1239 186.106 63.5346C186.37 63.9452 186.502 64.4329 186.502 64.9976C186.502 65.5769 186.359 66.0756 186.073 66.4936C185.794 66.9116 185.391 67.2232 184.863 67.4286L186.634 69.9586H185.094ZM185.061 64.9976C185.061 64.5062 184.899 64.1286 184.577 63.8646C184.254 63.6006 183.781 63.4686 183.158 63.4686H181.486V66.5376H183.158C183.781 66.5376 184.254 66.4056 184.577 66.1416C184.899 65.8702 185.061 65.4889 185.061 64.9976ZM191.459 63.4686H188.907V62.2586H195.441V63.4686H192.889V69.9586H191.459V63.4686ZM205.747 70.0686C205.153 70.0686 204.578 69.9842 204.02 69.8156C203.47 69.6469 203.034 69.4232 202.711 69.1446L203.206 68.0336C203.522 68.2829 203.907 68.4882 204.361 68.6496C204.823 68.8036 205.285 68.8806 205.747 68.8806C206.319 68.8806 206.745 68.7889 207.023 68.6056C207.309 68.4222 207.452 68.1802 207.452 67.8796C207.452 67.6596 207.372 67.4799 207.21 67.3406C207.056 67.1939 206.858 67.0802 206.616 66.9996C206.374 66.9189 206.044 66.8272 205.626 66.7246C205.04 66.5852 204.563 66.4459 204.196 66.3066C203.837 66.1672 203.525 65.9509 203.261 65.6576C203.005 65.3569 202.876 64.9536 202.876 64.4476C202.876 64.0222 202.99 63.6372 203.217 63.2926C203.452 62.9406 203.8 62.6619 204.262 62.4566C204.732 62.2512 205.304 62.1486 205.978 62.1486C206.448 62.1486 206.91 62.2072 207.364 62.3246C207.819 62.4419 208.211 62.6106 208.541 62.8306L208.09 63.9416C207.753 63.7436 207.401 63.5932 207.034 63.4906C206.668 63.3879 206.312 63.3366 205.967 63.3366C205.403 63.3366 204.981 63.4319 204.702 63.6226C204.431 63.8132 204.295 64.0662 204.295 64.3816C204.295 64.6016 204.372 64.7812 204.526 64.9206C204.688 65.0599 204.889 65.1699 205.131 65.2506C205.373 65.3312 205.703 65.4229 206.121 65.5256C206.693 65.6576 207.163 65.7969 207.529 65.9436C207.896 66.0829 208.208 66.2992 208.464 66.5926C208.728 66.8859 208.86 67.2819 208.86 67.7806C208.86 68.2059 208.743 68.5909 208.508 68.9356C208.281 69.2802 207.933 69.5552 207.463 69.7606C206.994 69.9659 206.422 70.0686 205.747 70.0686ZM215.492 70.0686C214.429 70.0686 213.6 69.7716 213.006 69.1776C212.412 68.5762 212.115 67.7182 212.115 66.6036V62.2586H213.545V66.5486C213.545 68.0592 214.198 68.8146 215.503 68.8146C216.801 68.8146 217.45 68.0592 217.45 66.5486V62.2586H218.858V66.6036C218.858 67.7182 218.561 68.5762 217.967 69.1776C217.381 69.7716 216.556 70.0686 215.492 70.0686ZM225.932 62.2586C226.599 62.2586 227.179 62.3686 227.67 62.5886C228.169 62.8086 228.55 63.1239 228.814 63.5346C229.078 63.9452 229.21 64.4329 229.21 64.9976C229.21 65.5549 229.078 66.0426 228.814 66.4606C228.55 66.8712 228.169 67.1866 227.67 67.4066C227.179 67.6266 226.599 67.7366 225.932 67.7366H224.194V69.9586H222.764V62.2586H225.932ZM225.866 66.5266C226.489 66.5266 226.962 66.3946 227.285 66.1306C227.608 65.8666 227.769 65.4889 227.769 64.9976C227.769 64.5062 227.608 64.1286 227.285 63.8646C226.962 63.6006 226.489 63.4686 225.866 63.4686H224.194V66.5266H225.866ZM235.709 62.2586C236.376 62.2586 236.956 62.3686 237.447 62.5886C237.946 62.8086 238.327 63.1239 238.591 63.5346C238.855 63.9452 238.987 64.4329 238.987 64.9976C238.987 65.5549 238.855 66.0426 238.591 66.4606C238.327 66.8712 237.946 67.1866 237.447 67.4066C236.956 67.6266 236.376 67.7366 235.709 67.7366H233.971V69.9586H232.541V62.2586H235.709ZM235.643 66.5266C236.266 66.5266 236.739 66.3946 237.062 66.1306C237.385 65.8666 237.546 65.4889 237.546 64.9976C237.546 64.5062 237.385 64.1286 237.062 63.8646C236.739 63.6006 236.266 63.4686 235.643 63.4686H233.971V66.5266H235.643ZM246.023 70.0686C245.238 70.0686 244.53 69.8999 243.9 69.5626C243.269 69.2179 242.774 68.7449 242.415 68.1436C242.055 67.5349 241.876 66.8566 241.876 66.1086C241.876 65.3606 242.055 64.6859 242.415 64.0846C242.774 63.4759 243.269 63.0029 243.9 62.6656C244.53 62.3209 245.238 62.1486 246.023 62.1486C246.807 62.1486 247.515 62.3209 248.146 62.6656C248.776 63.0029 249.271 63.4722 249.631 64.0736C249.99 64.6749 250.17 65.3532 250.17 66.1086C250.17 66.8639 249.99 67.5422 249.631 68.1436C249.271 68.7449 248.776 69.2179 248.146 69.5626C247.515 69.8999 246.807 70.0686 246.023 70.0686ZM246.023 68.8146C246.536 68.8146 246.998 68.7009 247.409 68.4736C247.819 68.2389 248.142 67.9162 248.377 67.5056C248.611 67.0876 248.729 66.6219 248.729 66.1086C248.729 65.5952 248.611 65.1332 248.377 64.7226C248.142 64.3046 247.819 63.9819 247.409 63.7546C246.998 63.5199 246.536 63.4026 246.023 63.4026C245.509 63.4026 245.047 63.5199 244.637 63.7546C244.226 63.9819 243.903 64.3046 243.669 64.7226C243.434 65.1332 243.317 65.5952 243.317 66.1086C243.317 66.6219 243.434 67.0876 243.669 67.5056C243.903 67.9162 244.226 68.2389 244.637 68.4736C245.047 68.7009 245.509 68.8146 246.023 68.8146ZM258.626 69.9586L257.053 67.7036C256.987 67.7109 256.888 67.7146 256.756 67.7146H255.018V69.9586H253.588V62.2586H256.756C257.424 62.2586 258.003 62.3686 258.494 62.5886C258.993 62.8086 259.374 63.1239 259.638 63.5346C259.902 63.9452 260.034 64.4329 260.034 64.9976C260.034 65.5769 259.891 66.0756 259.605 66.4936C259.327 66.9116 258.923 67.2232 258.395 67.4286L260.166 69.9586H258.626ZM258.593 64.9976C258.593 64.5062 258.432 64.1286 258.109 63.8646C257.787 63.6006 257.314 63.4686 256.69 63.4686H255.018V66.5376H256.69C257.314 66.5376 257.787 66.4056 258.109 66.1416C258.432 65.8702 258.593 65.4889 258.593 64.9976ZM264.992 63.4686H262.44V62.2586H268.974V63.4686H266.422V69.9586H264.992V63.4686ZM279.28 70.0686C278.686 70.0686 278.11 69.9842 277.553 69.8156C277.003 69.6469 276.567 69.4232 276.244 69.1446L276.739 68.0336C277.054 68.2829 277.439 68.4882 277.894 68.6496C278.356 68.8036 278.818 68.8806 279.28 68.8806C279.852 68.8806 280.277 68.7889 280.556 68.6056C280.842 68.4222 280.985 68.1802 280.985 67.8796C280.985 67.6596 280.904 67.4799 280.743 67.3406C280.589 67.1939 280.391 67.0802 280.149 66.9996C279.907 66.9189 279.577 66.8272 279.159 66.7246C278.572 66.5852 278.096 66.4459 277.729 66.3066C277.37 66.1672 277.058 65.9509 276.794 65.6576C276.537 65.3569 276.409 64.9536 276.409 64.4476C276.409 64.0222 276.523 63.6372 276.75 63.2926C276.985 62.9406 277.333 62.6619 277.795 62.4566C278.264 62.2512 278.836 62.1486 279.511 62.1486C279.98 62.1486 280.442 62.2072 280.897 62.3246C281.352 62.4419 281.744 62.6106 282.074 62.8306L281.623 63.9416C281.286 63.7436 280.934 63.5932 280.567 63.4906C280.2 63.3879 279.845 63.3366 279.5 63.3366C278.935 63.3366 278.514 63.4319 278.235 63.6226C277.964 63.8132 277.828 64.0662 277.828 64.3816C277.828 64.6016 277.905 64.7812 278.059 64.9206C278.22 65.0599 278.422 65.1699 278.664 65.2506C278.906 65.3312 279.236 65.4229 279.654 65.5256C280.226 65.6576 280.695 65.7969 281.062 65.9436C281.429 66.0829 281.74 66.2992 281.997 66.5926C282.261 66.8859 282.393 67.2819 282.393 67.7806C282.393 68.2059 282.276 68.5909 282.041 68.9356C281.814 69.2802 281.465 69.5552 280.996 69.7606C280.527 69.9659 279.955 70.0686 279.28 70.0686ZM291.489 68.7596V69.9586H285.714V62.2586H291.335V63.4576H287.144V65.4596H290.862V66.6366H287.144V68.7596H291.489ZM300.024 69.9586L298.451 67.7036C298.385 67.7109 298.286 67.7146 298.154 67.7146H296.416V69.9586H294.986V62.2586H298.154C298.821 62.2586 299.401 62.3686 299.892 62.5886C300.391 62.8086 300.772 63.1239 301.036 63.5346C301.3 63.9452 301.432 64.4329 301.432 64.9976C301.432 65.5769 301.289 66.0756 301.003 66.4936C300.724 66.9116 300.321 67.2232 299.793 67.4286L301.564 69.9586H300.024ZM299.991 64.9976C299.991 64.5062 299.83 64.1286 299.507 63.8646C299.184 63.6006 298.711 63.4686 298.088 63.4686H296.416V66.5376H298.088C298.711 66.5376 299.184 66.4056 299.507 66.1416C299.83 65.8702 299.991 65.4889 299.991 64.9976ZM311.975 62.2586L308.62 69.9586H307.212L303.846 62.2586H305.397L307.96 68.1986L310.545 62.2586H311.975ZM314.691 62.2586H316.121V69.9586H314.691V62.2586ZM323.67 70.0686C322.893 70.0686 322.189 69.8999 321.558 69.5626C320.935 69.2179 320.444 68.7449 320.084 68.1436C319.732 67.5422 319.556 66.8639 319.556 66.1086C319.556 65.3532 319.736 64.6749 320.095 64.0736C320.455 63.4722 320.946 63.0029 321.569 62.6656C322.2 62.3209 322.904 62.1486 323.681 62.1486C324.312 62.1486 324.888 62.2586 325.408 62.4786C325.929 62.6986 326.369 63.0176 326.728 63.4356L325.804 64.3046C325.247 63.7032 324.561 63.4026 323.747 63.4026C323.219 63.4026 322.746 63.5199 322.328 63.7546C321.91 63.9819 321.584 64.3009 321.349 64.7116C321.115 65.1222 320.997 65.5879 320.997 66.1086C320.997 66.6292 321.115 67.0949 321.349 67.5056C321.584 67.9162 321.91 68.2389 322.328 68.4736C322.746 68.7009 323.219 68.8146 323.747 68.8146C324.561 68.8146 325.247 68.5102 325.804 67.9016L326.728 68.7816C326.369 69.1996 325.925 69.5186 325.397 69.7386C324.877 69.9586 324.301 70.0686 323.67 70.0686ZM335.776 68.7596V69.9586H330.001V62.2586H335.622V63.4576H331.431V65.4596H335.149V66.6366H331.431V68.7596H335.776ZM341.661 70.0686C341.067 70.0686 340.491 69.9842 339.934 69.8156C339.384 69.6469 338.947 69.4232 338.625 69.1446L339.12 68.0336C339.435 68.2829 339.82 68.4882 340.275 68.6496C340.737 68.8036 341.199 68.8806 341.661 68.8806C342.233 68.8806 342.658 68.7889 342.937 68.6056C343.223 68.4222 343.366 68.1802 343.366 67.8796C343.366 67.6596 343.285 67.4799 343.124 67.3406C342.97 67.1939 342.772 67.0802 342.53 66.9996C342.288 66.9189 341.958 66.8272 341.54 66.7246C340.953 66.5852 340.476 66.4459 340.11 66.3066C339.75 66.1672 339.439 65.9509 339.175 65.6576C338.918 65.3569 338.79 64.9536 338.79 64.4476C338.79 64.0222 338.903 63.6372 339.131 63.2926C339.365 62.9406 339.714 62.6619 340.176 62.4566C340.645 62.2512 341.217 62.1486 341.892 62.1486C342.361 62.1486 342.823 62.2072 343.278 62.3246C343.732 62.4419 344.125 62.6106 344.455 62.8306L344.004 63.9416C343.666 63.7436 343.314 63.5932 342.948 63.4906C342.581 63.3879 342.225 63.3366 341.881 63.3366C341.316 63.3366 340.894 63.4319 340.616 63.6226C340.344 63.8132 340.209 64.0662 340.209 64.3816C340.209 64.6016 340.286 64.7812 340.44 64.9206C340.601 65.0599 340.803 65.1699 341.045 65.2506C341.287 65.3312 341.617 65.4229 342.035 65.5256C342.607 65.6576 343.076 65.7969 343.443 65.9436C343.809 66.0829 344.121 66.2992 344.378 66.5926C344.642 66.8859 344.774 67.2819 344.774 67.7806C344.774 68.2059 344.656 68.5909 344.422 68.9356C344.194 69.2802 343.846 69.5552 343.377 69.7606C342.907 69.9659 342.335 70.0686 341.661 70.0686Z"
          fill="#006738"/>
</svg>
