<svg width="249" height="64" viewBox="0 0 249 64" fill="none" xmlns="http://www.w3.org/2000/svg">
<path d="M38.7162 2L23.4662 37H17.0662L1.76624 2H8.81624L20.4662 29L32.2162 2H38.7162ZM76.1596 31.55V37H49.9096V2H75.4596V7.45H56.4096V16.55H73.3096V21.9H56.4096V31.55H76.1596ZM113.806 37L106.656 26.75C106.356 26.7833 105.906 26.8 105.306 26.8H97.4057V37H90.9057V2H105.306C108.339 2 110.972 2.5 113.206 3.5C115.472 4.5 117.206 5.93333 118.406 7.8C119.606 9.66667 120.206 11.8833 120.206 14.45C120.206 17.0833 119.556 19.35 118.256 21.25C116.989 23.15 115.156 24.5667 112.756 25.5L120.806 37H113.806ZM113.656 14.45C113.656 12.2167 112.922 10.5 111.456 9.3C109.989 8.1 107.839 7.5 105.006 7.5H97.4057V21.45H105.006C107.839 21.45 109.989 20.85 111.456 19.65C112.922 18.4167 113.656 16.6833 113.656 14.45ZM157.878 37L150.728 26.75C150.428 26.7833 149.978 26.8 149.378 26.8H141.478V37H134.978V2H149.378C152.411 2 155.045 2.5 157.278 3.5C159.545 4.5 161.278 5.93333 162.478 7.8C163.678 9.66667 164.278 11.8833 164.278 14.45C164.278 17.0833 163.628 19.35 162.328 21.25C161.061 23.15 159.228 24.5667 156.828 25.5L164.878 37H157.878ZM157.728 14.45C157.728 12.2167 156.995 10.5 155.528 9.3C154.061 8.1 151.911 7.5 149.078 7.5H141.478V21.45H149.078C151.911 21.45 154.061 20.85 155.528 19.65C156.995 18.4167 157.728 16.6833 157.728 14.45ZM179.05 2H194.35C198.084 2 201.4 2.73333 204.3 4.2C207.2 5.63333 209.45 7.68333 211.05 10.35C212.65 12.9833 213.45 16.0333 213.45 19.5C213.45 22.9667 212.65 26.0333 211.05 28.7C209.45 31.3333 207.2 33.3833 204.3 34.85C201.4 36.2833 198.084 37 194.35 37H179.05V2ZM194.05 31.5C196.617 31.5 198.867 31.0167 200.8 30.05C202.767 29.05 204.267 27.65 205.3 25.85C206.367 24.0167 206.9 21.9 206.9 19.5C206.9 17.1 206.367 15 205.3 13.2C204.267 11.3667 202.767 9.96667 200.8 9C198.867 8 196.617 7.5 194.05 7.5H185.55V31.5H194.05ZM227.859 2H234.359V37H227.859V2Z" fill="white"/>
<path d="M2.596 55.1589H0.044V53.9489H6.578V55.1589H4.026V61.6489H2.596V55.1589ZM14.5592 61.6489L12.9862 59.3939C12.9202 59.4013 12.8212 59.4049 12.6892 59.4049H10.9512V61.6489H9.52119V53.9489H12.6892C13.3565 53.9489 13.9359 54.0589 14.4272 54.2789C14.9259 54.4989 15.3072 54.8143 15.5712 55.2249C15.8352 55.6356 15.9672 56.1233 15.9672 56.6879C15.9672 57.2673 15.8242 57.7659 15.5382 58.1839C15.2595 58.6019 14.8562 58.9136 14.3282 59.1189L16.0992 61.6489H14.5592ZM14.5262 56.6879C14.5262 56.1966 14.3649 55.8189 14.0422 55.5549C13.7195 55.2909 13.2465 55.1589 12.6232 55.1589H10.9512V58.2279H12.6232C13.2465 58.2279 13.7195 58.0959 14.0422 57.8319C14.3649 57.5606 14.5262 57.1793 14.5262 56.6879ZM24.4311 59.8669H20.5811L19.8221 61.6489H18.3481L21.8131 53.9489H23.2211L26.6971 61.6489H25.2011L24.4311 59.8669ZM23.9581 58.7449L22.5061 55.3789L21.0651 58.7449H23.9581ZM36.3883 53.9489V61.6489H35.2113L30.9653 56.4349V61.6489H29.5463V53.9489H30.7233L34.9693 59.1629V53.9489H36.3883ZM42.7086 61.7589C42.1146 61.7589 41.539 61.6746 40.9816 61.5059C40.4316 61.3373 39.9953 61.1136 39.6726 60.8349L40.1676 59.7239C40.483 59.9733 40.868 60.1786 41.3226 60.3399C41.7846 60.4939 42.2466 60.5709 42.7086 60.5709C43.2806 60.5709 43.706 60.4793 43.9846 60.2959C44.2706 60.1126 44.4136 59.8706 44.4136 59.5699C44.4136 59.3499 44.333 59.1703 44.1716 59.0309C44.0176 58.8843 43.8196 58.7706 43.5776 58.6899C43.3356 58.6093 43.0056 58.5176 42.5876 58.4149C42.001 58.2756 41.5243 58.1363 41.1576 57.9969C40.7983 57.8576 40.4866 57.6413 40.2226 57.3479C39.966 57.0473 39.8376 56.6439 39.8376 56.1379C39.8376 55.7126 39.9513 55.3276 40.1786 54.9829C40.4133 54.6309 40.7616 54.3523 41.2236 54.1469C41.693 53.9416 42.265 53.8389 42.9396 53.8389C43.409 53.8389 43.871 53.8976 44.3256 54.0149C44.7803 54.1323 45.1726 54.3009 45.5026 54.5209L45.0516 55.6319C44.7143 55.4339 44.3623 55.2836 43.9956 55.1809C43.629 55.0783 43.2733 55.0269 42.9286 55.0269C42.364 55.0269 41.9423 55.1223 41.6636 55.3129C41.3923 55.5036 41.2566 55.7566 41.2566 56.0719C41.2566 56.2919 41.3336 56.4716 41.4876 56.6109C41.649 56.7503 41.8506 56.8603 42.0926 56.9409C42.3346 57.0216 42.6646 57.1133 43.0826 57.2159C43.6546 57.3479 44.124 57.4873 44.4906 57.6339C44.8573 57.7733 45.169 57.9896 45.4256 58.2829C45.6896 58.5763 45.8216 58.9723 45.8216 59.4709C45.8216 59.8963 45.7043 60.2813 45.4696 60.6259C45.2423 60.9706 44.894 61.2456 44.4246 61.4509C43.9553 61.6563 43.3833 61.7589 42.7086 61.7589ZM52.2776 53.9489C52.9449 53.9489 53.5243 54.0589 54.0156 54.2789C54.5143 54.4989 54.8956 54.8143 55.1596 55.2249C55.4236 55.6356 55.5556 56.1233 55.5556 56.6879C55.5556 57.2453 55.4236 57.7329 55.1596 58.1509C54.8956 58.5616 54.5143 58.8769 54.0156 59.0969C53.5243 59.3169 52.9449 59.4269 52.2776 59.4269H50.5396V61.6489H49.1096V53.9489H52.2776ZM52.2116 58.2169C52.8349 58.2169 53.3079 58.0849 53.6306 57.8209C53.9533 57.5569 54.1146 57.1793 54.1146 56.6879C54.1146 56.1966 53.9533 55.8189 53.6306 55.5549C53.3079 55.2909 52.8349 55.1589 52.2116 55.1589H50.5396V58.2169H52.2116ZM62.558 61.7589C61.7734 61.7589 61.0657 61.5903 60.435 61.2529C59.8044 60.9083 59.3094 60.4353 58.95 59.8339C58.5907 59.2253 58.411 58.5469 58.411 57.7989C58.411 57.0509 58.5907 56.3763 58.95 55.7749C59.3094 55.1663 59.8044 54.6933 60.435 54.3559C61.0657 54.0113 61.7734 53.8389 62.558 53.8389C63.3427 53.8389 64.0504 54.0113 64.681 54.3559C65.3117 54.6933 65.8067 55.1626 66.166 55.7639C66.5254 56.3653 66.705 57.0436 66.705 57.7989C66.705 58.5543 66.5254 59.2326 66.166 59.8339C65.8067 60.4353 65.3117 60.9083 64.681 61.2529C64.0504 61.5903 63.3427 61.7589 62.558 61.7589ZM62.558 60.5049C63.0714 60.5049 63.5334 60.3913 63.944 60.1639C64.3547 59.9293 64.6774 59.6066 64.912 59.1959C65.1467 58.7779 65.264 58.3123 65.264 57.7989C65.264 57.2856 65.1467 56.8236 64.912 56.4129C64.6774 55.9949 64.3547 55.6723 63.944 55.4449C63.5334 55.2103 63.0714 55.0929 62.558 55.0929C62.0447 55.0929 61.5827 55.2103 61.172 55.4449C60.7614 55.6723 60.4387 55.9949 60.204 56.4129C59.9694 56.8236 59.852 57.2856 59.852 57.7989C59.852 58.3123 59.9694 58.7779 60.204 59.1959C60.4387 59.6066 60.7614 59.9293 61.172 60.1639C61.5827 60.3913 62.0447 60.5049 62.558 60.5049ZM75.1288 61.6489L73.5558 59.3939C73.4898 59.4013 73.3908 59.4049 73.2588 59.4049H71.5208V61.6489H70.0908V53.9489H73.2588C73.9261 53.9489 74.5055 54.0589 74.9968 54.2789C75.4955 54.4989 75.8768 54.8143 76.1408 55.2249C76.4048 55.6356 76.5368 56.1233 76.5368 56.6879C76.5368 57.2673 76.3938 57.7659 76.1078 58.1839C75.8291 58.6019 75.4258 58.9136 74.8978 59.1189L76.6688 61.6489H75.1288ZM75.0958 56.6879C75.0958 56.1966 74.9345 55.8189 74.6118 55.5549C74.2891 55.2909 73.8161 55.1589 73.1928 55.1589H71.5208V58.2279H73.1928C73.8161 58.2279 74.2891 58.0959 74.6118 57.8319C74.9345 57.5606 75.0958 57.1793 75.0958 56.6879ZM81.4613 55.1589H78.9093V53.9489H85.4433V55.1589H82.8913V61.6489H81.4613V55.1589ZM95.6835 61.7589C95.0895 61.7589 94.5138 61.6746 93.9565 61.5059C93.4065 61.3373 92.9702 61.1136 92.6475 60.8349L93.1425 59.7239C93.4578 59.9733 93.8428 60.1786 94.2975 60.3399C94.7595 60.4939 95.2215 60.5709 95.6835 60.5709C96.2555 60.5709 96.6808 60.4793 96.9595 60.2959C97.2455 60.1126 97.3885 59.8706 97.3885 59.5699C97.3885 59.3499 97.3078 59.1703 97.1465 59.0309C96.9925 58.8843 96.7945 58.7706 96.5525 58.6899C96.3105 58.6093 95.9805 58.5176 95.5625 58.4149C94.9758 58.2756 94.4992 58.1363 94.1325 57.9969C93.7732 57.8576 93.4615 57.6413 93.1975 57.3479C92.9408 57.0473 92.8125 56.6439 92.8125 56.1379C92.8125 55.7126 92.9262 55.3276 93.1535 54.9829C93.3882 54.6309 93.7365 54.3523 94.1985 54.1469C94.6678 53.9416 95.2398 53.8389 95.9145 53.8389C96.3838 53.8389 96.8458 53.8976 97.3005 54.0149C97.7552 54.1323 98.1475 54.3009 98.4775 54.5209L98.0265 55.6319C97.6892 55.4339 97.3372 55.2836 96.9705 55.1809C96.6038 55.0783 96.2482 55.0269 95.9035 55.0269C95.3388 55.0269 94.9172 55.1223 94.6385 55.3129C94.3672 55.5036 94.2315 55.7566 94.2315 56.0719C94.2315 56.2919 94.3085 56.4716 94.4625 56.6109C94.6238 56.7503 94.8255 56.8603 95.0675 56.9409C95.3095 57.0216 95.6395 57.1133 96.0575 57.2159C96.6295 57.3479 97.0988 57.4873 97.4655 57.6339C97.8322 57.7733 98.1438 57.9896 98.4005 58.2829C98.6645 58.5763 98.7965 58.9723 98.7965 59.4709C98.7965 59.8963 98.6792 60.2813 98.4445 60.6259C98.2172 60.9706 97.8688 61.2456 97.3995 61.4509C96.9302 61.6563 96.3582 61.7589 95.6835 61.7589ZM105.395 61.7589C104.332 61.7589 103.503 61.4619 102.909 60.8679C102.315 60.2666 102.018 59.4086 102.018 58.2939V53.9489H103.448V58.2389C103.448 59.7496 104.101 60.5049 105.406 60.5049C106.704 60.5049 107.353 59.7496 107.353 58.2389V53.9489H108.761V58.2939C108.761 59.4086 108.464 60.2666 107.87 60.8679C107.284 61.4619 106.459 61.7589 105.395 61.7589ZM115.802 53.9489C116.469 53.9489 117.049 54.0589 117.54 54.2789C118.039 54.4989 118.42 54.8143 118.684 55.2249C118.948 55.6356 119.08 56.1233 119.08 56.6879C119.08 57.2453 118.948 57.7329 118.684 58.1509C118.42 58.5616 118.039 58.8769 117.54 59.0969C117.049 59.3169 116.469 59.4269 115.802 59.4269H114.064V61.6489H112.634V53.9489H115.802ZM115.736 58.2169C116.359 58.2169 116.832 58.0849 117.155 57.8209C117.478 57.5569 117.639 57.1793 117.639 56.6879C117.639 56.1966 117.478 55.8189 117.155 55.5549C116.832 55.2909 116.359 55.1589 115.736 55.1589H114.064V58.2169H115.736ZM125.546 53.9489C126.214 53.9489 126.793 54.0589 127.284 54.2789C127.783 54.4989 128.164 54.8143 128.428 55.2249C128.692 55.6356 128.824 56.1233 128.824 56.6879C128.824 57.2453 128.692 57.7329 128.428 58.1509C128.164 58.5616 127.783 58.8769 127.284 59.0969C126.793 59.3169 126.214 59.4269 125.546 59.4269H123.808V61.6489H122.378V53.9489H125.546ZM125.48 58.2169C126.104 58.2169 126.577 58.0849 126.899 57.8209C127.222 57.5569 127.383 57.1793 127.383 56.6879C127.383 56.1966 127.222 55.8189 126.899 55.5549C126.577 55.2909 126.104 55.1589 125.48 55.1589H123.808V58.2169H125.48ZM135.827 61.7589C135.042 61.7589 134.334 61.5903 133.704 61.2529C133.073 60.9083 132.578 60.4353 132.219 59.8339C131.859 59.2253 131.68 58.5469 131.68 57.7989C131.68 57.0509 131.859 56.3763 132.219 55.7749C132.578 55.1663 133.073 54.6933 133.704 54.3559C134.334 54.0113 135.042 53.8389 135.827 53.8389C136.611 53.8389 137.319 54.0113 137.95 54.3559C138.58 54.6933 139.075 55.1626 139.435 55.7639C139.794 56.3653 139.974 57.0436 139.974 57.7989C139.974 58.5543 139.794 59.2326 139.435 59.8339C139.075 60.4353 138.58 60.9083 137.95 61.2529C137.319 61.5903 136.611 61.7589 135.827 61.7589ZM135.827 60.5049C136.34 60.5049 136.802 60.3913 137.213 60.1639C137.623 59.9293 137.946 59.6066 138.181 59.1959C138.415 58.7779 138.533 58.3123 138.533 57.7989C138.533 57.2856 138.415 56.8236 138.181 56.4129C137.946 55.9949 137.623 55.6723 137.213 55.4449C136.802 55.2103 136.34 55.0929 135.827 55.0929C135.313 55.0929 134.851 55.2103 134.441 55.4449C134.03 55.6723 133.707 55.9949 133.473 56.4129C133.238 56.8236 133.121 57.2856 133.121 57.7989C133.121 58.3123 133.238 58.7779 133.473 59.1959C133.707 59.6066 134.03 59.9293 134.441 60.1639C134.851 60.3913 135.313 60.5049 135.827 60.5049ZM148.397 61.6489L146.824 59.3939C146.758 59.4013 146.659 59.4049 146.527 59.4049H144.789V61.6489H143.359V53.9489H146.527C147.195 53.9489 147.774 54.0589 148.265 54.2789C148.764 54.4989 149.145 54.8143 149.409 55.2249C149.673 55.6356 149.805 56.1233 149.805 56.6879C149.805 57.2673 149.662 57.7659 149.376 58.1839C149.098 58.6019 148.694 58.9136 148.166 59.1189L149.937 61.6489H148.397ZM148.364 56.6879C148.364 56.1966 148.203 55.8189 147.88 55.5549C147.558 55.2909 147.085 55.1589 146.461 55.1589H144.789V58.2279H146.461C147.085 58.2279 147.558 58.0959 147.88 57.8319C148.203 57.5606 148.364 57.1793 148.364 56.6879ZM154.73 55.1589H152.178V53.9489H158.712V55.1589H156.16V61.6489H154.73V55.1589ZM168.952 61.7589C168.358 61.7589 167.782 61.6746 167.225 61.5059C166.675 61.3373 166.239 61.1136 165.916 60.8349L166.411 59.7239C166.726 59.9733 167.111 60.1786 167.566 60.3399C168.028 60.4939 168.49 60.5709 168.952 60.5709C169.524 60.5709 169.949 60.4793 170.228 60.2959C170.514 60.1126 170.657 59.8706 170.657 59.5699C170.657 59.3499 170.576 59.1703 170.415 59.0309C170.261 58.8843 170.063 58.7706 169.821 58.6899C169.579 58.6093 169.249 58.5176 168.831 58.4149C168.244 58.2756 167.768 58.1363 167.401 57.9969C167.042 57.8576 166.73 57.6413 166.466 57.3479C166.209 57.0473 166.081 56.6439 166.081 56.1379C166.081 55.7126 166.195 55.3276 166.422 54.9829C166.657 54.6309 167.005 54.3523 167.467 54.1469C167.936 53.9416 168.508 53.8389 169.183 53.8389C169.652 53.8389 170.114 53.8976 170.569 54.0149C171.024 54.1323 171.416 54.3009 171.746 54.5209L171.295 55.6319C170.958 55.4339 170.606 55.2836 170.239 55.1809C169.872 55.0783 169.517 55.0269 169.172 55.0269C168.607 55.0269 168.186 55.1223 167.907 55.3129C167.636 55.5036 167.5 55.7566 167.5 56.0719C167.5 56.2919 167.577 56.4716 167.731 56.6109C167.892 56.7503 168.094 56.8603 168.336 56.9409C168.578 57.0216 168.908 57.1133 169.326 57.2159C169.898 57.3479 170.367 57.4873 170.734 57.6339C171.101 57.7733 171.412 57.9896 171.669 58.2829C171.933 58.5763 172.065 58.9723 172.065 59.4709C172.065 59.8963 171.948 60.2813 171.713 60.6259C171.486 60.9706 171.137 61.2456 170.668 61.4509C170.199 61.6563 169.627 61.7589 168.952 61.7589ZM181.128 60.4499V61.6489H175.353V53.9489H180.974V55.1479H176.783V57.1499H180.501V58.3269H176.783V60.4499H181.128ZM189.63 61.6489L188.057 59.3939C187.991 59.4013 187.892 59.4049 187.76 59.4049H186.022V61.6489H184.592V53.9489H187.76C188.428 53.9489 189.007 54.0589 189.498 54.2789C189.997 54.4989 190.378 54.8143 190.642 55.2249C190.906 55.6356 191.038 56.1233 191.038 56.6879C191.038 57.2673 190.895 57.7659 190.609 58.1839C190.331 58.6019 189.927 58.9136 189.399 59.1189L191.17 61.6489H189.63ZM189.597 56.6879C189.597 56.1966 189.436 55.8189 189.113 55.5549C188.791 55.2909 188.318 55.1589 187.694 55.1589H186.022V58.2279H187.694C188.318 58.2279 188.791 58.0959 189.113 57.8319C189.436 57.5606 189.597 57.1793 189.597 56.6879ZM201.548 53.9489L198.193 61.6489H196.785L193.419 53.9489H194.97L197.533 59.8889L200.118 53.9489H201.548ZM204.231 53.9489H205.661V61.6489H204.231V53.9489ZM213.177 61.7589C212.4 61.7589 211.696 61.5903 211.065 61.2529C210.442 60.9083 209.951 60.4353 209.591 59.8339C209.239 59.2326 209.063 58.5543 209.063 57.7989C209.063 57.0436 209.243 56.3653 209.602 55.7639C209.962 55.1626 210.453 54.6933 211.076 54.3559C211.707 54.0113 212.411 53.8389 213.188 53.8389C213.819 53.8389 214.395 53.9489 214.915 54.1689C215.436 54.3889 215.876 54.7079 216.235 55.1259L215.311 55.9949C214.754 55.3936 214.068 55.0929 213.254 55.0929C212.726 55.0929 212.253 55.2103 211.835 55.4449C211.417 55.6723 211.091 55.9913 210.856 56.4019C210.622 56.8126 210.504 57.2783 210.504 57.7989C210.504 58.3196 210.622 58.7853 210.856 59.1959C211.091 59.6066 211.417 59.9293 211.835 60.1639C212.253 60.3913 212.726 60.5049 213.254 60.5049C214.068 60.5049 214.754 60.2006 215.311 59.5919L216.235 60.4719C215.876 60.8899 215.432 61.2089 214.904 61.4289C214.384 61.6489 213.808 61.7589 213.177 61.7589ZM225.251 60.4499V61.6489H219.476V53.9489H225.097V55.1479H220.906V57.1499H224.624V58.3269H220.906V60.4499H225.251ZM231.102 61.7589C230.508 61.7589 229.932 61.6746 229.375 61.5059C228.825 61.3373 228.388 61.1136 228.066 60.8349L228.561 59.7239C228.876 59.9733 229.261 60.1786 229.716 60.3399C230.178 60.4939 230.64 60.5709 231.102 60.5709C231.674 60.5709 232.099 60.4793 232.378 60.2959C232.664 60.1126 232.807 59.8706 232.807 59.5699C232.807 59.3499 232.726 59.1703 232.565 59.0309C232.411 58.8843 232.213 58.7706 231.971 58.6899C231.729 58.6093 231.399 58.5176 230.981 58.4149C230.394 58.2756 229.917 58.1363 229.551 57.9969C229.191 57.8576 228.88 57.6413 228.616 57.3479C228.359 57.0473 228.231 56.6439 228.231 56.1379C228.231 55.7126 228.344 55.3276 228.572 54.9829C228.806 54.6309 229.155 54.3523 229.617 54.1469C230.086 53.9416 230.658 53.8389 231.333 53.8389C231.802 53.8389 232.264 53.8976 232.719 54.0149C233.173 54.1323 233.566 54.3009 233.896 54.5209L233.445 55.6319C233.107 55.4339 232.755 55.2836 232.389 55.1809C232.022 55.0783 231.666 55.0269 231.322 55.0269C230.757 55.0269 230.335 55.1223 230.057 55.3129C229.785 55.5036 229.65 55.7566 229.65 56.0719C229.65 56.2919 229.727 56.4716 229.881 56.6109C230.042 56.7503 230.244 56.8603 230.486 56.9409C230.728 57.0216 231.058 57.1133 231.476 57.2159C232.048 57.3479 232.517 57.4873 232.884 57.6339C233.25 57.7733 233.562 57.9896 233.819 58.2829C234.083 58.5763 234.215 58.9723 234.215 59.4709C234.215 59.8963 234.097 60.2813 233.863 60.6259C233.635 60.9706 233.287 61.2456 232.818 61.4509C232.348 61.6563 231.776 61.7589 231.102 61.7589Z" fill="#F9AD35"/>
</svg>
