<svg width="1920" viewBox="0 0 1920 284" fill="none" xmlns="http://www.w3.org/2000/svg">
<g clip-path="url(#clip0)">
<g clip-path="url(#clip1)">
<path d="M2382.01 154.888H2325.27C2268.53 154.888 2155.39 154.888 2041.25 137.781C1928.27 120.353 1814.63 86.6219 1702.15 64.9376C1588.01 43.2532 1473.87 35.2219 1361.39 56.3441C1247.75 77.7876 1134.77 129.188 1020.63 133.444C907.486 138.022 794.01 94.6532 679.873 77.7876C567.224 60.9219 453.252 68.9532 340.769 82.0441C226.798 94.6532 114.149 112.322 56.2534 120.594L0.0117188 129.188V206.288H56.7498C113.488 206.288 226.632 206.288 340.769 206.288C453.749 206.288 567.39 206.288 679.873 206.288C794.01 206.288 908.147 206.288 1020.63 206.288C1134.27 206.288 1247.25 206.288 1361.39 206.288C1474.53 206.288 1588.01 206.288 1702.15 206.288C1814.79 206.288 1928.77 206.288 2041.25 206.288C2155.22 206.288 2267.87 206.288 2325.76 206.288H2382.01V154.888Z" fill="#002112"/>
</g>
<g clip-path="url(#clip2)">
<path d="M1920 0L1840 32C1760 64 1600 128 1440 133.3C1280 139 1120 85 959.998 58.7C799.998 32 639.998 32 479.999 53.3C319.999 75 160 117 79.9996 138.7L-0.00012207 160V288H79.9996C160 288 319.999 288 479.999 288C639.998 288 799.998 288 959.998 288C1120 288 1280 288 1440 288C1600 288 1760 288 1840 288H1920V0Z" fill="#014124"/>
</g>
<g clip-path="url(#clip3)">
<path d="M1920 205.288H1840C1760 205.288 1600 205.288 1440 178.588C1280 152.288 1120 98.2876 959.998 82.5876C799.998 66.2876 639.998 88.2876 479.999 82.5876C319.999 77.2876 160 45.2876 79.9996 29.2876L-0.00012207 13.2876V269.288H79.9996C160 269.288 319.999 269.288 479.999 269.288C639.998 269.288 799.998 269.288 959.998 269.288C1120 269.288 1280 269.288 1440 269.288C1600 269.288 1760 269.288 1840 269.288H1920V205.288Z" fill="#006738"/>
</g>
<g clip-path="url(#clip4)">
<path d="M1920 220.288H1840C1760 220.288 1600 220.288 1440 193.588C1280 167.288 1120 113.288 959.998 97.5876C799.998 81.2876 639.998 103.288 479.999 97.5876C319.999 92.2876 160 60.2876 79.9996 44.2876L-0.00012207 28.2876V284.288H79.9996C160 284.288 319.999 284.288 479.999 284.288C639.998 284.288 799.998 284.288 959.998 284.288C1120 284.288 1280 284.288 1440 284.288C1600 284.288 1760 284.288 1840 284.288H1920V220.288Z" fill="white"/>
</g>
</g>
<defs>
<clipPath id="clip0">
<rect width="1920" height="284" fill="white"/>
</clipPath>
<clipPath id="clip1">
<rect width="2381.99" height="257" fill="white" transform="matrix(-1 0 0 1 2382.01 -50.7124)"/>
</clipPath>
<clipPath id="clip2">
<rect width="1920" height="320" fill="white" transform="matrix(-1 0 0 1 1920 -32)"/>
</clipPath>
<clipPath id="clip3">
<rect width="1920" height="320" fill="white" transform="matrix(-1 0 0 1 1920 -50.7124)"/>
</clipPath>
<clipPath id="clip4">
<rect width="1920" height="320" fill="white" transform="matrix(-1 0 0 1 1920 -35.7124)"/>
</clipPath>
</defs>
</svg>
